<svg width="171" height="43" viewBox="0 0 171 43" fill="none" xmlns="http://www.w3.org/2000/svg">
<g clip-path="url(#clip0_274_254)">
<path d="M32.0918 25.0735C32.0918 23.7847 31.0377 22.613 29.6322 22.613H26.9383C25.65 22.613 24.4788 23.6675 24.4788 25.0735V34.2125C24.4788 35.5013 25.5329 36.673 26.9383 36.673H29.7493C31.0377 36.673 32.2089 35.6185 32.2089 34.2125L32.0918 25.0735ZM30.8034 34.0953C30.8034 34.7983 30.2178 35.3842 29.5151 35.3842H26.9383C26.2356 35.3842 25.65 34.7983 25.65 34.0953V25.1907C25.65 24.4877 26.2356 23.9019 26.9383 23.9019H29.5151C30.2178 23.9019 30.8034 24.4877 30.8034 25.1907V34.0953Z" fill="white"/>
<path d="M170.531 5.2725C170.414 5.2725 165.144 3.98367 159.873 2.57768H159.639C157.531 1.99185 155.423 1.40601 153.666 0.93735C147.224 -0.93731 136.566 0.820184 136.097 0.93735C135.98 0.93735 135.863 1.05452 135.746 1.05452C135.629 1.17168 126.493 9.60765 121.574 14.5286C116.655 19.4496 106.699 20.2698 106.582 20.2698H22.0192C21.7849 20.2698 15.226 20.6213 12.2979 23.4333C9.72121 25.8938 6.676 27.8856 3.39655 29.1744C1.75683 29.8774 -0.117147 31.0491 -2.37576e-05 32.5722C0.1171 33.7439 1.28833 34.6812 3.51367 35.267C8.54998 36.7902 22.9561 37.6104 27.7582 37.6104C32.326 37.6104 40.2904 37.2589 41.2274 37.1417C52.0027 39.1335 63.0123 40.0709 73.9048 40.0709C75.4274 40.0709 76.8329 40.0709 78.2383 39.9537L81.2835 42.6485C81.4007 42.7657 81.5178 42.7657 81.752 42.7657H85.9685C86.3198 42.7657 86.5541 42.5314 86.5541 42.1799V39.485C98.3835 38.782 107.051 36.5559 108.925 35.8529C109.393 35.7357 109.862 35.6185 110.447 35.5014H110.681C110.799 35.5014 110.916 35.5014 111.033 35.3842C115.366 34.5641 125.322 33.1581 129.538 32.5722C129.89 32.5722 130.124 32.2207 130.124 31.8692V30.4632H139.611C139.962 30.5804 140.314 30.5804 140.782 30.5804C141.836 30.5804 143.008 30.3461 143.827 29.6431C144.647 28.9401 145.116 27.8856 144.999 26.8311C144.999 26.0109 144.647 25.0736 144.062 24.4878C143.359 23.9019 142.656 23.5504 141.719 23.3161C143.593 20.3869 148.629 12.3025 150.152 9.72482C151.206 7.96732 153.08 6.91283 155.071 6.91283L170.531 6.67849C170.883 6.67849 171.234 6.44416 171.234 6.09266C171 5.624 170.883 5.2725 170.531 5.2725ZM136.566 1.99185C137.971 1.75751 147.692 0.351519 153.431 1.99185L154.954 2.46051H140.197C140.079 2.46051 139.962 2.46051 139.962 2.46051H136.214L136.566 1.99185ZM106.816 21.4414C108.573 21.2071 110.33 20.9728 111.97 20.5041L120.637 21.6758V23.3161L116.772 24.1363C116.655 24.1363 116.538 24.2534 116.421 24.2534L109.393 30.8147H106.699L106.816 21.4414ZM121.925 24.3706L128.25 22.9646L128.484 29.1744L121.808 28.9401L121.925 24.3706ZM121.925 23.0818V21.9101L125.322 22.3788L121.925 23.0818ZM100.492 21.4414H105.528V27.7684H100.492V21.4414ZM40.876 35.97C39.3534 36.0872 31.9746 36.3215 27.7582 36.3215C22.7219 36.3215 8.54998 35.5014 3.86504 33.9782C1.52258 33.2752 1.28833 32.5722 1.28833 32.3379C1.28833 31.8692 2.1082 30.9319 3.98217 30.1117C5.85614 29.5259 7.61299 28.5886 9.36984 27.4169L18.2712 27.7684V24.0191H13.5863C16.2801 21.7929 22.0192 21.4414 22.0192 21.4414H99.2034V28.4714C99.2034 28.8229 99.4376 29.0572 99.789 29.0572H105.528V30.9319H98.1493C98.2664 29.7602 97.915 28.7057 97.2123 27.7684C96.3924 26.8311 95.1041 26.3624 93.8157 26.3624C92.5274 26.2453 91.239 26.7139 90.302 27.7684C89.5993 28.7057 89.365 29.7602 89.4822 30.8147H87.6082V21.4414H86.3198V30.8147L52.9397 30.5804C49.0746 30.1117 45.0924 31.2834 42.1644 33.9782L40.876 35.97ZM90.8876 30.8147C90.7705 29.9946 90.8876 29.1744 91.3561 28.5886C92.0589 27.8856 92.9959 27.5341 93.9328 27.6512C94.8698 27.5341 95.6897 27.8856 96.2753 28.5886C96.7438 29.2916 96.9781 30.1117 96.8609 30.9319L90.8876 30.8147ZM95.3383 37.376C89.8335 38.1962 84.3287 38.6649 78.7068 38.8992C78.2383 38.3134 77.887 37.7275 77.887 37.0245C77.887 36.4387 78.1212 35.8529 78.5897 35.5014H95.3383V37.376ZM76.5986 36.673C76.4815 36.673 76.4815 36.5559 76.3644 36.5559H55.9849C55.0479 36.673 54.2281 36.673 53.2911 36.4387C53.2911 36.0872 54.6965 35.5014 55.9849 35.3842H76.8328C76.8328 35.8529 76.7157 36.2044 76.5986 36.673ZM55.165 37.9619C55.5164 37.9619 55.8678 37.9619 56.2192 37.8447H76.4815C76.5986 37.8447 76.7157 37.8447 76.8328 37.7275C76.95 38.079 77.0671 38.5477 77.3013 38.8992C76.1301 38.8992 75.076 38.8992 73.9048 38.8992C67.5801 38.8992 61.3726 38.6649 55.165 37.9619ZM85.2657 41.7112H81.8692L79.9952 40.0709C81.752 39.9537 83.5089 39.8365 85.1486 39.7194L85.2657 41.7112ZM96.6267 37.1417V35.3842H105.645C103.537 35.8529 100.492 36.5559 96.6267 37.1417ZM110.213 34.0954H55.9849C55.0479 34.2126 52.1198 34.6812 52.1198 36.4387C52.1198 36.7902 52.237 37.1417 52.5883 37.376C52.8226 37.6104 53.1739 37.7275 53.4082 37.7275C48.0205 37.1417 44.0383 36.4387 42.2815 36.0872L43.3356 34.6812C47.0835 30.9319 52.8226 31.6349 53.0568 31.7521L106.114 32.2207H106.231H106.348H109.744C109.862 32.2207 110.096 32.1036 110.213 31.9864L117.24 25.3079L120.754 24.6049V29.6431C120.754 29.9946 120.988 30.2289 121.34 30.2289C121.34 30.2289 121.34 30.2289 121.457 30.2289L128.836 30.3461V31.2834C125.908 31.6349 114.898 33.1581 110.213 34.0954ZM142.89 24.9564C143.242 25.4251 143.476 26.0109 143.476 26.5968C143.593 27.2997 143.242 28.0027 142.773 28.4714C141.836 29.0572 140.665 29.2916 139.494 29.0572H129.89L129.655 22.9646L140.314 24.4878C140.548 24.4878 140.782 24.3706 140.899 24.2534L141.016 24.1363C141.602 24.1363 142.305 24.4878 142.89 24.9564ZM139.962 23.0818L131.295 21.7929L142.656 8.67032H148.864L148.747 8.78749C147.107 11.7166 141.251 21.0899 139.962 23.0818ZM149.801 7.49866H142.305C142.071 7.49866 141.953 7.61582 141.836 7.73299L129.773 21.6758V21.7929L129.07 21.6758L115.015 19.6839C117.826 18.8638 120.403 17.3406 122.628 15.3488C126.142 11.8338 131.764 6.44416 134.809 3.74934H139.845L141.134 5.50683C141.251 5.624 141.485 5.74116 141.602 5.624L152.026 6.09266C151.089 6.44416 150.386 6.91283 149.801 7.49866ZM154.954 5.38967L141.953 4.5695L141.251 3.74934H159.522C161.63 4.33517 163.738 4.80383 165.495 5.2725L154.954 5.38967Z" fill="white"/>
<path d="M37.2452 25.3079H34.6685V27.8855H37.2452V25.3079Z" fill="white"/>
<path d="M42.2815 25.3079H39.7048V27.8855H42.2815V25.3079Z" fill="white"/>
<path d="M47.3178 25.3079H44.7411V27.8855H47.3178V25.3079Z" fill="white"/>
<path d="M52.3541 25.3079H49.7773V27.8855H52.3541V25.3079Z" fill="white"/>
<path d="M57.3904 25.3079H54.8137V27.8855H57.3904V25.3079Z" fill="white"/>
<path d="M62.5439 25.3079H59.9672V27.8855H62.5439V25.3079Z" fill="white"/>
<path d="M67.5801 25.3079H65.0034V27.8855H67.5801V25.3079Z" fill="white"/>
<path d="M72.6164 25.3079H70.0397V27.8855H72.6164V25.3079Z" fill="white"/>
<path d="M77.6528 25.3079H75.076V27.8855H77.6528V25.3079Z" fill="white"/>
<path d="M82.689 25.3079H80.1123V27.8855H82.689V25.3079Z" fill="white"/>
</g>
<defs>
<clipPath id="clip0_274_254">
<rect width="171" height="43" fill="white"/>
</clipPath>
</defs>
</svg>
