<svg width="143" height="38" viewBox="0 0 143 38" fill="none" xmlns="http://www.w3.org/2000/svg">
<path d="M44.7391 23.5255C44.7391 22.9255 44.2391 22.4255 43.6391 22.4255C43.0391 22.4255 42.5391 22.9255 42.5391 23.5255V24.6255C42.5391 25.2255 43.0391 25.7255 43.6391 25.7255C44.2391 25.7255 44.7391 25.2255 44.7391 24.6255V23.5255Z" fill="white"/>
<path d="M39.339 23.5255C39.339 22.9255 38.839 22.4255 38.239 22.4255C37.639 22.4255 37.139 22.9255 37.139 23.5255V24.6255C37.139 25.2255 37.639 25.7255 38.239 25.7255C38.839 25.7255 39.339 25.2255 39.339 24.6255V23.5255Z" fill="white"/>
<path d="M50.1391 23.5255C50.1391 22.9255 49.6391 22.4255 49.0391 22.4255C48.4391 22.4255 47.9391 22.9255 47.9391 23.5255V24.6255C47.9391 25.2255 48.4391 25.7255 49.0391 25.7255C49.6391 25.7255 50.1391 25.2255 50.1391 24.6255V23.5255Z" fill="white"/>
<path d="M55.5391 23.5255C55.5391 22.9255 55.0391 22.4255 54.4391 22.4255C53.8391 22.4255 53.3391 22.9255 53.3391 23.5255V24.6255C53.3391 25.2255 53.8391 25.7255 54.4391 25.7255C55.0391 25.7255 55.5391 25.2255 55.5391 24.6255V23.5255Z" fill="white"/>
<path d="M60.9391 23.5255C60.9391 22.9255 60.4391 22.4255 59.8391 22.4255C59.2391 22.4255 58.7391 22.9255 58.7391 23.5255V24.6255C58.7391 25.2255 59.2391 25.7255 59.8391 25.7255C60.4391 25.7255 60.9391 25.2255 60.9391 24.6255V23.5255Z" fill="white"/>
<path d="M66.339 23.5255C66.339 22.9255 65.839 22.4255 65.239 22.4255C64.639 22.4255 64.139 22.9255 64.139 23.5255V24.6255C64.139 25.2255 64.639 25.7255 65.239 25.7255C65.839 25.7255 66.339 25.2255 66.339 24.6255V23.5255Z" fill="white"/>
<path d="M142.439 4.62545C142.439 4.32545 142.139 4.12545 141.939 4.12545H141.439C141.239 2.22545 139.539 0.825448 137.639 0.925448H120.039C119.939 0.925448 119.739 1.02545 119.639 1.12545L105.739 14.9254H99.8391C99.8391 14.9254 97.6391 14.9254 97.2391 18.1254H25.4391C21.9391 17.7254 18.5391 18.6254 15.7391 20.7254C10.7391 24.0254 3.0391 28.7254 3.0391 28.7254C2.5391 28.9254 0.339094 29.8254 0.439094 31.3254C0.539094 32.4254 1.8391 33.2254 4.5391 33.9254C11.7391 35.6254 37.2391 35.1254 39.5391 35.1254C40.4391 35.5254 45.3391 37.5254 55.3391 37.5254H79.4391C81.8391 37.5254 84.1391 37.1254 86.3391 36.4254C89.1391 35.3254 100.339 32.1254 104.739 31.0254C109.039 29.9254 124.539 26.1254 124.539 26.1254C126.039 25.9254 127.139 24.5254 127.039 22.9254C127.039 21.5254 126.039 20.3254 124.739 20.1254L133.839 7.12545H142.239C142.539 7.12545 142.739 6.92545 142.739 6.62545C142.539 5.72545 142.439 4.62545 142.439 4.62545ZM120.239 1.92545H137.639C138.939 1.92545 140.139 2.82545 140.339 4.12545H118.039L120.239 1.92545ZM97.1391 19.2254H97.5391C98.8391 19.7254 103.539 20.1254 108.439 20.4254V25.2254C106.639 25.5254 99.6391 26.8254 95.0391 27.1254L95.3391 26.4254C95.6391 25.9254 96.5391 24.4254 96.0391 23.5254C95.8391 23.1254 95.3391 22.8254 94.8391 22.9254C93.3391 22.9254 92.6391 23.7254 91.7391 24.9254C91.2391 25.5254 90.7391 26.1254 90.1391 26.7254L89.6391 27.2254C87.8391 27.0254 86.1391 26.5254 84.5391 25.7254V19.1254H97.1391V19.2254ZM93.3391 28.3254L90.7391 33.6254C90.4391 32.9254 89.9391 32.4254 89.2391 32.2254C89.1391 32.2254 89.1391 32.2254 89.0391 32.2254H87.3391C88.4391 30.5254 89.7391 29.0254 91.1391 27.5254C91.7391 26.9254 92.2391 26.3254 92.7391 25.7254C93.6391 24.6254 94.0391 24.1254 95.0391 24.1254C95.1391 24.1254 95.2391 24.1254 95.2391 24.1254C95.2391 24.8254 94.9391 25.4254 94.5391 26.0254L93.3391 28.3254ZM52.9391 36.4254C44.7391 36.1254 40.4391 34.5254 39.8391 34.2254C40.9391 33.0254 43.6391 31.0254 50.4391 31.0254H76.6391C76.9391 31.0254 77.1391 30.8254 77.1391 30.5254V26.7254H84.2391C85.7391 27.5254 87.3391 28.0254 88.9391 28.2254C87.5391 29.8254 86.4391 31.4254 86.0391 32.1254H56.4391C56.0391 32.1254 52.4391 32.3254 52.4391 34.6254C52.4391 35.2254 52.5391 35.9254 52.9391 36.4254ZM4.7391 33.0254C1.6391 32.3254 1.5391 31.4254 1.5391 31.3254C1.5391 30.8254 2.6391 30.1254 3.5391 29.7254C3.6391 29.7254 8.1391 26.9254 12.5391 24.1254L21.0391 24.6254V22.0254C20.3391 22.0254 17.7391 21.8254 16.1391 21.7254L16.2391 21.6254C18.8391 19.7254 21.9391 18.8254 25.1391 19.2254H83.5391V25.6254H76.5391C76.2391 25.6254 76.0391 25.8254 76.0391 26.1254V29.9254H50.4391C41.7391 29.9254 39.1391 33.1254 38.4391 34.2254C33.4391 34.4254 11.1391 34.6254 4.7391 33.0254ZM85.8391 35.4254C83.7391 36.1254 81.5391 36.5254 79.2391 36.5254H56.2391C55.4391 36.6254 54.7391 36.5254 54.0391 36.2254C53.6391 35.8254 53.4391 35.3254 53.4391 34.7254C53.4391 33.6254 55.6391 33.3254 56.4391 33.3254H88.8391C89.1391 33.4254 89.4391 33.6254 89.6391 33.9254C89.5391 34.2254 89.2391 34.4254 89.0391 34.4254C87.6391 34.8254 86.5391 35.1254 85.8391 35.4254ZM125.739 23.0254C125.839 24.0254 125.139 24.9254 124.139 25.1254C124.139 25.1254 108.839 28.9254 104.339 30.0254C101.639 30.6254 96.3391 32.2254 91.9391 33.4254L94.4391 28.2254C99.2391 27.9254 108.339 26.2254 108.739 26.1254C109.039 26.1254 109.339 25.9254 109.439 25.6254V20.4254C114.939 20.7254 120.439 20.9254 121.339 20.9254C124.039 21.0254 125.739 21.3254 125.739 23.0254ZM123.339 20.0254C122.739 19.9254 122.039 19.9254 121.439 19.9254C120.739 19.9254 119.239 19.9254 117.239 19.8254L128.039 7.32545H132.239L123.339 20.0254ZM133.239 6.22545H127.739C127.539 6.22545 127.439 6.32545 127.339 6.42545L115.839 19.7254C109.639 19.4254 100.439 18.9254 98.2391 18.3254C98.4391 16.0254 99.7391 16.0254 99.8391 16.0254H105.939C106.039 16.0254 106.239 15.9254 106.339 15.8254L117.139 5.02545V5.22545H140.939H141.039H141.539C141.539 5.52545 141.539 5.92545 141.539 6.32545L133.239 6.22545Z" fill="white"/>
<path d="M31.2391 20.2255H25.8391C25.5391 20.2255 25.3391 20.4255 25.3391 20.7255V34.2255H26.4391V21.2255H30.7391V34.2255H31.8391V20.8255C31.7391 20.5255 31.5391 20.2255 31.2391 20.2255Z" fill="white"/>
</svg>
