<svg width="179" height="40" viewBox="0 0 179 40" fill="none" xmlns="http://www.w3.org/2000/svg">
<g clip-path="url(#clip0_274_362)">
<path d="M78.456 39.8651C71.3741 39.8651 68.216 38.9679 64.5411 37.918L63.986 37.7653C60.1771 36.6963 56.2342 36.6199 56.215 36.6008H17.6665C5.05304 36.6008 0.593349 32.8593 0.401946 32.7065L0 32.3629L0.421086 32.0384C4.53625 28.8504 10.7186 26.4833 11.4459 26.2161C11.7139 26.0061 13.0345 25.0325 15.5802 23.3526C18.5469 21.3864 21.3031 21.5391 21.418 21.5391H109.272V22.4173H21.3797C21.3223 22.4173 18.7575 22.2836 16.0587 24.0781C13.2259 25.9488 11.9244 26.9415 11.9053 26.9415L11.7904 26.9988C11.733 27.0178 5.58896 29.3086 1.41638 32.3629C2.81362 33.2601 7.5987 35.7418 17.6665 35.7418H56.215C56.3873 35.7418 60.3111 35.8181 64.2348 36.9253L64.7899 37.078C68.3883 38.1089 71.5081 38.987 78.456 38.987C85.9399 38.987 105.712 36.7344 114.957 34.501L115.167 35.3409C105.884 37.5935 85.9782 39.8651 78.456 39.8651Z" fill="white"/>
<path d="M96.6585 39.3116C93.0792 39.3116 91.3566 39.0061 91.2035 38.968L91.3758 38.1089C91.4523 38.128 99.5869 39.5788 118.287 36.0091C137.102 32.4011 157.199 27.6097 157.41 27.5524C157.907 27.4569 158.577 27.1897 158.577 26.9224C158.577 26.617 158.443 26.2925 156.836 25.987C156.759 25.968 148.299 24.3835 140.145 24.1735L140.164 23.2954C148.395 23.5054 156.912 25.1089 156.989 25.128C158.175 25.3571 159.439 25.7007 159.439 26.9224C159.439 28.0296 157.773 28.3541 157.582 28.3923C157.41 28.4305 137.293 33.2411 118.459 36.849C108.104 38.8343 101.003 39.3116 96.6585 39.3116Z" fill="white"/>
<path d="M75.5085 37.8416C70.8765 37.8416 67.3356 37.4789 66.2637 36.4863C65.9192 36.1617 65.8427 35.8181 65.8427 35.589C65.8427 35.1691 66.0149 34.8064 66.3403 34.4819C68.4075 32.4775 77.2311 32.7065 85.7677 32.9356C88.122 32.9929 90.3614 33.0501 92.2563 33.0501C100.697 33.0501 112.698 32.8974 114.306 32.8783L123.665 23.3145H127.34L121.426 34.8827L121.177 34.9018C121.177 34.9018 99.6444 36.4672 95.8163 36.7344C95.3953 36.7535 94.7062 36.8108 93.8258 36.8871C87.6052 37.3835 80.8295 37.8416 75.5085 37.8416ZM77.8053 33.661C72.6757 33.661 68.1395 33.9473 66.9337 35.1118C66.7231 35.3218 66.704 35.4936 66.704 35.6081C66.704 35.6463 66.704 35.7418 66.8571 35.8754C69.2113 38.0325 87.6817 36.5244 93.7683 36.0281C94.6488 35.9518 95.3378 35.8945 95.7589 35.8754C99.3382 35.6272 118.498 34.2337 120.871 34.081L125.905 24.2117H124.01L114.67 33.7755H114.497C114.363 33.7755 101.29 33.9473 92.2563 33.9473C90.3422 33.9473 88.1028 33.8901 85.7486 33.8328C83.1838 33.7374 80.4084 33.661 77.8053 33.661Z" fill="white"/>
<path d="M117.119 31.2367C110.152 31.0839 108.832 29.824 108.832 27.5142V22.4745C108.832 19.9929 110.325 18.7521 118.536 18.7521C126.843 18.7521 140.069 21.8637 140.203 21.8828L140.547 21.9591V28.0296L140.203 28.106C140.107 28.1251 130.977 30.2631 123.168 30.9885L123.091 30.1295C130.001 29.4804 137.963 27.7242 139.667 27.3424V22.6463C137.561 22.1691 126.001 19.6111 118.536 19.6111C109.712 19.6111 109.712 21.1955 109.712 22.4745V27.5142C109.712 28.7168 109.712 30.2058 117.139 30.3585L117.119 31.2367Z" fill="white"/>
<path d="M25.9351 21.9781H25.0547V36.1808H25.9351V21.9781Z" fill="white"/>
<path d="M9.16817 28.0295H8.28772V35.4172H9.16817V28.0295Z" fill="white"/>
<path d="M15.829 23.7535H20.2887V26.9415H11.0631L15.829 23.7535Z" fill="white"/>
<path d="M56.0811 29.1368C57.3813 29.1368 58.4353 28.3505 58.4353 27.3805C58.4353 26.4106 57.3813 25.6243 56.0811 25.6243C54.7808 25.6243 53.7268 26.4106 53.7268 27.3805C53.7268 28.3505 54.7808 29.1368 56.0811 29.1368Z" fill="white"/>
<path d="M93.2323 29.1368C94.5325 29.1368 95.5866 28.3505 95.5866 27.3805C95.5866 26.4106 94.5325 25.6243 93.2323 25.6243C91.9321 25.6243 90.8781 26.4106 90.8781 27.3805C90.8781 28.3505 91.9321 29.1368 93.2323 29.1368Z" fill="white"/>
<path d="M85.7294 29.1368C87.0296 29.1368 88.0836 28.3505 88.0836 27.3805C88.0836 26.4106 87.0296 25.6243 85.7294 25.6243C84.4292 25.6243 83.3751 26.4106 83.3751 27.3805C83.3751 28.3505 84.4292 29.1368 85.7294 29.1368Z" fill="white"/>
<path d="M78.2263 29.1368C79.5265 29.1368 80.5806 28.3505 80.5806 27.3805C80.5806 26.4106 79.5265 25.6243 78.2263 25.6243C76.9261 25.6243 75.8721 26.4106 75.8721 27.3805C75.8721 28.3505 76.9261 29.1368 78.2263 29.1368Z" fill="white"/>
<path d="M70.8191 29.1368C72.1193 29.1368 73.1734 28.3505 73.1734 27.3805C73.1734 26.4106 72.1193 25.6243 70.8191 25.6243C69.5189 25.6243 68.4648 26.4106 68.4648 27.3805C68.4648 28.3505 69.5189 29.1368 70.8191 29.1368Z" fill="white"/>
<path d="M63.4117 29.1368C64.712 29.1368 65.766 28.3505 65.766 27.3805C65.766 26.4106 64.712 25.6243 63.4117 25.6243C62.1115 25.6243 61.0575 26.4106 61.0575 27.3805C61.0575 28.3505 62.1115 29.1368 63.4117 29.1368Z" fill="white"/>
<path d="M55.794 36.219C55.7749 36.1044 55.5452 33.6228 58.9713 31.8856C61.9955 30.3585 65.9575 30.3585 69.441 30.3775H70.3789H96.0843C96.2757 30.3775 101.061 30.2821 108.296 33.0883L107.99 33.89C100.908 31.1602 96.1417 31.2366 96.0843 31.2366H69.441C66.0341 31.2175 62.1869 31.2175 59.3732 32.6492C56.5213 34.1 56.6745 36.0471 56.6745 36.1235L55.794 36.219Z" fill="white"/>
<path d="M106.803 21.9781H105.942V32.7828H106.803V21.9781Z" fill="white"/>
<path d="M138.537 29.6522C137.389 29.6522 136.011 29.5568 134.422 29.2895L134.556 28.4305C139.207 29.175 141.791 28.5259 142.825 28.1251C141.447 27.0179 139.935 26.3497 139.916 26.3497L140.26 25.548C140.337 25.5862 142.308 26.4452 143.897 27.896L144.299 28.2587L143.839 28.5641C143.782 28.6596 142.251 29.6522 138.537 29.6522Z" fill="white"/>
<path d="M157.142 5.35116C150.213 5.35116 149.237 5.06481 149.237 4.03398C149.237 3.00314 150.232 2.7168 157.142 2.7168C163.783 2.7168 178.847 3.59492 179 3.61401V4.47304C178.847 4.47304 163.764 5.35116 157.142 5.35116ZM149.658 4.03398L150.098 4.05307C150.5 4.49213 155.496 4.49213 157.142 4.49213C160.51 4.49213 166.099 4.26305 170.75 4.03398C166.08 3.8049 160.51 3.57583 157.142 3.57583C155.515 3.57583 150.538 3.57583 150.098 4.03398H149.658Z" fill="white"/>
<path d="M150.711 7.58464C149.179 7.58464 147.878 7.35557 147.036 6.78288C146.385 6.34382 146.04 5.69477 146.04 4.93119C146.04 1.70505 149.275 0.865112 150.998 0.865112H156.338C161.219 0.865112 169.947 1.41871 172.167 1.87686C174.655 2.39228 174.521 3.78582 174.502 3.84309L173.641 3.72855L174.081 3.78582L173.641 3.74764C173.641 3.51856 173.315 2.98406 171.995 2.7168C169.87 2.27774 161.085 1.72414 156.338 1.72414H150.998C150.825 1.72414 146.921 1.78141 146.921 4.93119C146.921 5.40843 147.131 5.79022 147.533 6.07657C149.6 7.48919 156.223 6.42018 161.142 4.53031L161.448 5.33207C158.443 6.49654 154.041 7.58464 150.711 7.58464Z" fill="white"/>
<path d="M160.925 4.70498L150.157 24.3752L150.913 24.7869L161.681 5.11662L160.925 4.70498Z" fill="white"/>
<path d="M166.723 4.45091L157.374 25.5638L158.162 25.9109L167.511 4.79796L166.723 4.45091Z" fill="white"/>
<path d="M130.881 20.2219H126.269V19.3438H130.881C130.92 19.3438 134.939 19.3056 137.906 15.8313C141.007 12.1852 146.5 5.96198 146.538 5.88562L147.189 6.45831C147.131 6.51558 141.657 12.7388 138.557 16.3849C135.36 20.1646 131.111 20.2219 130.881 20.2219Z" fill="white"/>
<path d="M131.207 20.9664V20.0883C137.963 20.0883 140.279 16.7286 140.298 16.6904L148.108 6.85925L148.797 7.39376L141.006 17.1867C140.93 17.3394 138.461 20.9664 131.207 20.9664Z" fill="white"/>
<path d="M35.199 34.6345H33.0361C31.792 34.6345 30.7776 33.6228 30.7776 32.3819V25.7388C30.7776 24.498 31.792 23.4862 33.0361 23.4862H35.199C36.4431 23.4862 37.4575 24.498 37.4575 25.7388V32.3819C37.4575 33.6228 36.4431 34.6345 35.199 34.6345ZM33.017 24.3452C32.2514 24.3452 31.6198 24.9752 31.6198 25.7388V32.3819C31.6198 33.1455 32.2514 33.7755 33.017 33.7755H35.1799C35.9455 33.7755 36.5771 33.1455 36.5771 32.3819V25.7388C36.5771 24.9752 35.9455 24.3452 35.1799 24.3452H33.017Z" fill="white"/>
<path d="M42.1278 29.1368C43.428 29.1368 44.4821 28.3505 44.4821 27.3805C44.4821 26.4106 43.428 25.6243 42.1278 25.6243C40.8276 25.6243 39.7736 26.4106 39.7736 27.3805C39.7736 28.3505 40.8276 29.1368 42.1278 29.1368Z" fill="white"/>
<path d="M48.9226 29.1368C50.2228 29.1368 51.2769 28.3505 51.2769 27.3805C51.2769 26.4106 50.2228 25.6243 48.9226 25.6243C47.6224 25.6243 46.5684 26.4106 46.5684 27.3805C46.5684 28.3505 47.6224 29.1368 48.9226 29.1368Z" fill="white"/>
</g>
<defs>
<clipPath id="clip0_274_362">
<rect width="179" height="39" fill="white" transform="translate(0 0.865112)"/>
</clipPath>
</defs>
</svg>
