<svg width="140" height="43" viewBox="0 0 140 43" fill="none" xmlns="http://www.w3.org/2000/svg">
<g clip-path="url(#clip0_274_215)">
<path d="M77.1 42.4C69.9 42.4 45.3 40.3 44.3 40.2C44.2 40.2 23.3 40.2 17.3 40C12.5 40 0 38.2 0 35.2C0 31.5 15.8 28.8 19.3 28.3C20.3 27.3 25.8 21.8 31 21.4C36.4 21 69.1 21.1 78.5 21.4C87.9 21.7 96.6 20.6 98.5 19C100.3 17.4 119.9 1.70003 123.7 0.700034C127.3 -0.199966 130.2 -0.0999657 130.3 -0.0999657H138.7C138.9 -0.0999657 139 3.4295e-05 139.1 0.100034C139.2 0.200034 139.2 0.400034 139.2 0.500034L138.9 1.70003C138.9 1.80003 138.9 1.80003 138.8 1.90003L121.8 23.5C121.7 24.4 121.3 28 118.5 29.2C116 30.3 83.3 41.8 78.4 42.2C78.1 42.4 77.7 42.4 77.1 42.4ZM50 22.3C41.4 22.3 33.6 22.4 31.2 22.6C26 23 20.1 29.2 20.1 29.3C20 29.4 19.9 29.4 19.8 29.5C10.6 30.9 1.1 33.5 1.1 35.3C1.1 36.6 9.8 38.9 17.3 39.1C23.3 39.3 44.1 39.3 44.3 39.3C44.6 39.3 73.7 41.8 78.3 41.5C82.9 41.2 114.7 30.1 118 28.5C120.5 27.4 120.7 23.5 120.7 23.5C120.7 23.4 120.7 23.3 120.8 23.2L137.8 1.50003L137.9 1.10003H130.1C130 1.10003 127.2 0.900034 123.8 1.90003C120.5 2.80003 101.4 17.9 99.1 19.9C96.7 22 86.9 22.8 78.4 22.6C73.3 22.4 60.9 22.3 50 22.3Z" fill="white"/>
<path d="M43.4001 37.4H40.2001C38.9001 37.4 37.8 36.3 37.8 35V25.3C37.8 24 38.9001 22.9 40.2001 22.9H43.4001C44.7001 22.9 45.8 24 45.8 25.3V35C45.8 36.3 44.7001 37.4 43.4001 37.4ZM40.3 24C39.5 24 39 24.5 39 25.3V35C39 35.8 39.5 36.3 40.3 36.3H43.5C44.3 36.3 44.8 35.8 44.8 35V25.3C44.8 24.5 44.3 24 43.5 24H40.3Z" fill="white"/>
<path d="M51.1 24.4H49C48.7 24.4 48.5 24.6 48.5 24.9V28.1C48.5 28.4 48.7 28.6 49 28.6H51.1C51.4 28.6 51.6 28.4 51.6 28.1V25C51.6 24.7 51.4 24.4 51.1 24.4Z" fill="white"/>
<path d="M59 24.4H56.9C56.6 24.4 56.4 24.6 56.4 24.9V28.1C56.4 28.4 56.6 28.6 56.9 28.6H59C59.3 28.6 59.5 28.4 59.5 28.1V25C59.5 24.7 59.2 24.4 59 24.4Z" fill="white"/>
<path d="M66.7 24.4H64.6C64.3 24.4 64.1 24.6 64.1 24.9V28.1C64.1 28.4 64.3 28.6 64.6 28.6H66.7C67 28.6 67.2 28.4 67.2 28.1V25C67.3 24.7 67.1 24.4 66.7 24.4Z" fill="white"/>
<path d="M29.1 24.2C29 24 28.8 23.9 28.6 23.9L24.9 24C24.8 24 24.7 24 24.6 24.1L20.5 27.1C20.3 27.2 20.3 27.5 20.3 27.7C20.3 27.9 20.6 28 20.8 28H25.1C25.2 28 25.4 28 25.4 27.9L28.6 24.8C29.1 24.6 29.2001 24.4 29.1 24.2Z" fill="white"/>
<path d="M36.3 24.3C36.2 24.1 36 23.9 35.8 23.9H30.7C30.6 23.9 30.4 24 30.3 24.1L27.4 27.2C27.3 27.3 27.2 27.6 27.3 27.7C27.4 27.9 27.6 28 27.8 28H29.9C30 28 30.1 28 30.1 27.9L36 24.8C36.3 24.7 36.4 24.5 36.3 24.3Z" fill="white"/>
<path d="M121.3 24.4001H112.4C112.1 24.4001 111.9 24.2001 111.9 23.9001V22.6001C111.9 22.5001 111.9 22.4001 112 22.3001L125.2 8.30007H119.9C119.6 8.30007 119.4 8.10007 119.4 7.80007V6.20007C119.4 5.90007 119.6 5.70007 119.9 5.70007H134.8C135.1 5.70007 135.3 5.90007 135.3 6.20007C135.3 6.50007 135.1 6.70007 134.8 6.70007H120.4V7.00007H126.3C126.5 7.00007 126.7 7.10007 126.8 7.30007C126.9 7.50007 126.8 7.70007 126.7 7.80007L113 22.7001V23.2001H121.4C121.7 23.2001 121.9 23.4001 121.9 23.7001C121.9 24.0001 121.6 24.4001 121.3 24.4001Z" fill="white"/>
<path d="M133.7 8.20007H126.4C126.1 8.20007 125.9 8.00007 125.9 7.70007C125.9 7.40007 126.1 7.20007 126.4 7.20007H133.7C134 7.20007 134.2 7.40007 134.2 7.70007C134.2 8.00007 134 8.20007 133.7 8.20007Z" fill="white"/>
<path d="M112.4 24.4C112.2 24.4 90.2 22.6 83.9 22.6C83.6 22.6 83.4 22.4 83.4 22.1C83.4 21.8 83.6 21.6 83.9 21.6C90.3 21.6 112.3 23.4 112.5 23.4C112.8 23.4 113 23.7 113 23.9C113 24.2 112.6 24.4 112.4 24.4Z" fill="white"/>
<path d="M75.2999 22.4001C75.0999 22.4001 74.8999 22.2001 74.7999 22.0001C74.6999 21.7001 74.8999 21.5001 75.1999 21.4001C76.0999 21.2001 95.0999 17.2001 100.8 17.4001C101.1 17.4001 101.3 17.6001 101.3 17.9001C101.3 18.2001 101.1 18.4001 100.8 18.4001C95.2999 18.3001 75.5999 22.4001 75.4999 22.4001C75.3999 22.4001 75.3999 22.4001 75.2999 22.4001Z" fill="white"/>
<path d="M44.3 40.2C44.2 40.2 44 40.1 43.9 40C43.7 39.8 43.7 39.5 43.9 39.2C44.1 39 50.2 33.6 54.1 33.5C57.9 33.4 71.2 33.5 71.3 33.5C71.6 33.5 71.8 33.7 71.8 34C71.8 34.3 71.6 34.5 71.3 34.5C71.2 34.5 57.9 34.4 54.1 34.5C50.5 34.6 44.7 39.9 44.6 39.9C44.5 40.2 44.4 40.2 44.3 40.2Z" fill="white"/>
<path d="M75.3 38.8001H66.8C66.5 38.8001 66.3 38.6001 66.3 38.3001V36.9001C66.3 36.7001 66.5 36.4001 66.7 36.4001L69.8 35.9001L74.9 26.5001C75 26.3001 75.2 26.2001 75.3 26.2001H79C79.3 26.2001 79.5 26.4001 79.5 26.7001V31.9001C79.5 32.0001 79.5 32.1001 79.4 32.1001L75.7 38.6001C75.7 38.7001 75.5 38.8001 75.3 38.8001ZM67.3 37.7001H75.1L78.6 31.7001V27.3001H75.8L70.7 36.7001C70.6 36.8001 70.5 36.9001 70.3 37.0001L67.4 37.4001V37.7001H67.3Z" fill="white"/>
<path d="M73.3 40.8001C70.5 40.8001 60.3 40.3001 59.2 38.7001C59 38.6001 59 38.3001 59.1 38.0001C59.5 36.6001 64.1 36.3001 66.8 36.2001C67 36.2001 67.3 36.4001 67.3 36.7001C67.3 37.0001 67.1 37.2001 66.8 37.2001C63.9 37.3001 61 37.7001 60.3 38.2001C61.6 39.0001 68.3 39.7001 73.4 39.7001C77.4 39.7001 77.9 38.7001 77.9 38.7001C78 38.4001 78.2 38.3001 78.5 38.4001C78.8 38.5001 78.9 38.8001 78.9 39.0001C78.7 39.5001 78.1 40.8001 73.3 40.8001Z" fill="white"/>
<path d="M88.9 39.5001H78.4C78.2 39.5001 78 39.4001 77.9 39.2001C77.9 39.2001 77.4 37.9001 75.8 37.8001C75.5 37.8001 75.3 37.5001 75.4 37.3001C75.4 37.0001 75.7 36.8001 75.9 36.9001C77.5 37.0001 78.3 38.1001 78.6 38.6001H88.6L100 31.0001L99.4 30.8001H93.2C92.4 31.2001 88.7 33.1001 85.2 33.1001C81.5 33.1001 78.9 32.5001 78.7 32.5001C78.4 32.4001 78.3 32.2001 78.3 31.9001C78.4 31.6001 78.6 31.5001 78.9 31.5001C78.9 31.5001 81.6 32.1001 85.1 32.1001C88.6 32.1001 92.7 29.8001 92.7 29.8001C92.8 29.8001 92.9 29.7001 92.9 29.7001H99.3C99.4 29.7001 99.4 29.7001 99.5 29.7001L101.2 30.3001C101.4 30.4001 101.5 30.5001 101.5 30.7001C101.5 30.9001 101.4 31.1001 101.3 31.2001L88.9 39.4001C89.1 39.5001 89 39.5001 88.9 39.5001Z" fill="white"/>
<path d="M96.8 30.7C96.5 30.7 96.3 30.5 96.3 30.2V25.8C95.5 25.6 93.6 25.3 91.3 25C88.2 24.8 77.5 24.5 76.3 24.5C76.2 24.5 76.2 24.5 76.2 24.6C75.9 24.9 75.9 26 75.9 26.8C75.9 27.1 75.7 27.3 75.4 27.3C75.1 27.3 74.9 27.1 74.9 26.9C74.9 26.6 74.7 24.7 75.4 24C75.6 23.7 75.9 23.6 76.4 23.6C77.8 23.6 88.4 23.9 91.4 24.1C94.5 24.3 96.8 25 96.9 25C97.1 25.1 97.3 25.3 97.3 25.5V30.4C97.3 30.5 97.1 30.7 96.8 30.7Z" fill="white"/>
</g>
<defs>
<clipPath id="clip0_274_215">
<rect width="139.2" height="42.4" fill="white"/>
</clipPath>
</defs>
</svg>
