<svg width="180" height="53" viewBox="0 0 180 53" fill="none" xmlns="http://www.w3.org/2000/svg">
<path d="M79.0412 52.3701C71.9593 52.3701 68.8011 51.4729 65.1262 50.423L64.5711 50.2703C60.7622 49.2013 56.8193 49.1249 56.8002 49.1058H18.2516C5.63818 49.1058 1.17849 45.3643 0.98709 45.2115L0.585144 44.8679L1.00623 44.5434C5.12139 41.3554 11.3037 38.9883 12.031 38.7211C12.299 38.5111 13.6197 37.5375 16.1653 35.8577C19.1321 33.8914 21.8883 34.0441 22.0031 34.0441H109.857V34.9223H21.9648C21.9074 34.9223 19.3426 34.7886 16.6438 36.5831C13.8111 38.4538 12.5095 39.4465 12.4904 39.4465L12.3756 39.5038C12.3181 39.5228 6.17411 41.8136 2.00153 44.8679C3.39877 45.7651 8.18384 48.2468 18.2516 48.2468H56.8002C56.9724 48.2468 60.8962 48.3231 64.82 49.4303L65.375 49.5831C68.9734 50.6139 72.0933 51.492 79.0412 51.492C86.525 51.492 106.297 49.2394 115.542 47.006L115.752 47.8459C106.469 50.0985 86.5633 52.3701 79.0412 52.3701Z" fill="white"/>
<path d="M97.2436 51.8166C93.6644 51.8166 91.9418 51.5111 91.7886 51.473L91.9609 50.6139C92.0375 50.633 100.172 52.0838 118.872 48.5141C137.687 44.9061 157.784 40.1147 157.995 40.0574C158.493 39.9619 159.162 39.6947 159.162 39.4274C159.162 39.122 159.028 38.7975 157.421 38.492C157.344 38.473 148.884 36.8885 140.73 36.6785L140.749 35.8004C148.98 36.0104 157.497 37.6139 157.574 37.633C158.761 37.8621 160.024 38.2057 160.024 39.4274C160.024 40.5346 158.359 40.8592 158.167 40.8973C157.995 40.9355 137.878 45.7461 119.044 49.354C108.69 51.3393 101.588 51.8166 97.2436 51.8166Z" fill="white"/>
<path d="M76.0936 50.3466C71.4616 50.3466 67.9207 49.9839 66.8488 48.9913C66.5043 48.6667 66.4277 48.3231 66.4277 48.0941C66.4277 47.6741 66.6 47.3114 66.9254 46.9869C68.9925 44.9825 77.8162 45.2115 86.3528 45.4406C88.707 45.4979 90.9464 45.5551 92.8413 45.5551C101.282 45.5551 113.283 45.4024 114.891 45.3833L124.251 35.8195H127.925L122.011 47.3877L121.762 47.4068C121.762 47.4068 100.229 48.9722 96.4014 49.2394C95.9803 49.2585 95.2913 49.3158 94.4108 49.3921C88.1902 49.8885 81.4146 50.3466 76.0936 50.3466ZM78.3904 46.166C73.2608 46.166 68.7246 46.4524 67.5187 47.6168C67.3082 47.8268 67.289 47.9986 67.289 48.1131C67.289 48.1513 67.289 48.2468 67.4422 48.3804C69.7964 50.5375 88.2668 49.0294 94.3534 48.5331C95.2339 48.4568 95.9229 48.3995 96.344 48.3804C99.9232 48.1322 119.083 46.7387 121.456 46.586L126.49 36.7167H124.595L115.255 46.2805H115.082C114.948 46.2805 101.876 46.4524 92.8413 46.4524C90.9273 46.4524 88.6879 46.3951 86.3336 46.3378C83.7688 46.2424 80.9935 46.166 78.3904 46.166Z" fill="white"/>
<path d="M117.705 43.7417C110.737 43.5889 109.417 42.329 109.417 40.0192V34.9795C109.417 32.4979 110.91 31.2571 119.121 31.2571C127.428 31.2571 140.654 34.3687 140.788 34.3878L141.132 34.4641V40.5346L140.788 40.611C140.692 40.6301 131.562 42.7681 123.753 43.4935L123.676 42.6345C130.586 41.9854 138.548 40.2292 140.252 39.8474V35.1514C138.146 34.6741 126.586 32.1161 119.121 32.1161C110.297 32.1161 110.297 33.7005 110.297 34.9795V40.0192C110.297 41.2218 110.297 42.7108 117.724 42.8635L117.705 43.7417Z" fill="white"/>
<path d="M26.5202 34.4832H25.6398V48.6858H26.5202V34.4832Z" fill="white"/>
<path d="M9.75332 40.5345H8.87286V47.9222H9.75332V40.5345Z" fill="white"/>
<path d="M16.4142 36.2585H20.8739V39.4465H11.6483L16.4142 36.2585Z" fill="white"/>
<path d="M56.6662 41.6418C57.9664 41.6418 59.0205 40.8555 59.0205 39.8855C59.0205 38.9156 57.9664 38.1293 56.6662 38.1293C55.366 38.1293 54.312 38.9156 54.312 39.8855C54.312 40.8555 55.366 41.6418 56.6662 41.6418Z" fill="white"/>
<path d="M93.8175 41.6418C95.1177 41.6418 96.1718 40.8555 96.1718 39.8855C96.1718 38.9156 95.1177 38.1293 93.8175 38.1293C92.5173 38.1293 91.4633 38.9156 91.4633 39.8855C91.4633 40.8555 92.5173 41.6418 93.8175 41.6418Z" fill="white"/>
<path d="M86.3145 41.6418C87.6147 41.6418 88.6688 40.8555 88.6688 39.8855C88.6688 38.9156 87.6147 38.1293 86.3145 38.1293C85.0143 38.1293 83.9603 38.9156 83.9603 39.8855C83.9603 40.8555 85.0143 41.6418 86.3145 41.6418Z" fill="white"/>
<path d="M78.8115 41.6418C80.1118 41.6418 81.1658 40.8555 81.1658 39.8855C81.1658 38.9156 80.1118 38.1293 78.8115 38.1293C77.5113 38.1293 76.4573 38.9156 76.4573 39.8855C76.4573 40.8555 77.5113 41.6418 78.8115 41.6418Z" fill="white"/>
<path d="M71.4042 41.6418C72.7045 41.6418 73.7585 40.8555 73.7585 39.8855C73.7585 38.9156 72.7045 38.1293 71.4042 38.1293C70.104 38.1293 69.05 38.9156 69.05 39.8855C69.05 40.8555 70.104 41.6418 71.4042 41.6418Z" fill="white"/>
<path d="M63.9969 41.6418C65.2971 41.6418 66.3512 40.8555 66.3512 39.8855C66.3512 38.9156 65.2971 38.1293 63.9969 38.1293C62.6967 38.1293 61.6426 38.9156 61.6426 39.8855C61.6426 40.8555 62.6967 41.6418 63.9969 41.6418Z" fill="white"/>
<path d="M56.3791 48.724C56.3599 48.6094 56.1303 46.1278 59.5564 44.3906C62.5805 42.8635 66.5426 42.8635 70.0261 42.8826H70.964H96.6694C96.8608 42.8826 101.646 42.7871 108.881 45.5933L108.575 46.395C101.493 43.6652 96.7268 43.7416 96.6694 43.7416H70.0261C66.6191 43.7225 62.7719 43.7225 59.9583 45.1542C57.1064 46.605 57.2595 48.5522 57.2595 48.6285L56.3791 48.724Z" fill="white"/>
<path d="M107.388 34.4832H106.527V45.2879H107.388V34.4832Z" fill="white"/>
<path d="M139.123 42.1572C137.974 42.1572 136.596 42.0618 135.007 41.7945L135.141 40.9355C139.792 41.68 142.376 41.031 143.41 40.6301C142.032 39.5229 140.52 38.8547 140.501 38.8547L140.845 38.053C140.922 38.0912 142.893 38.9502 144.482 40.401L144.884 40.7637L144.424 41.0691C144.367 41.1646 142.836 42.1572 139.123 42.1572Z" fill="white"/>
<path d="M157.727 17.8562C150.798 17.8562 149.822 17.5698 149.822 16.539C149.822 15.5081 150.817 15.2218 157.727 15.2218C164.369 15.2218 179.432 16.0999 179.585 16.119V16.978C179.432 16.978 164.349 17.8562 157.727 17.8562ZM150.243 16.539L150.683 16.5581C151.085 16.9971 156.081 16.9971 157.727 16.9971C161.096 16.9971 166.685 16.7681 171.336 16.539C166.665 16.3099 161.096 16.0808 157.727 16.0808C156.1 16.0808 151.124 16.0808 150.683 16.539H150.243Z" fill="white"/>
<path d="M151.296 20.0896C149.765 20.0896 148.463 19.8606 147.621 19.2879C146.97 18.8488 146.625 18.1998 146.625 17.4362C146.625 14.2101 149.86 13.3701 151.583 13.3701H156.923C161.804 13.3701 170.532 13.9237 172.752 14.3819C175.24 14.8973 175.106 16.2908 175.087 16.3481L174.226 16.2336L174.666 16.2908L174.226 16.2526C174.226 16.0236 173.9 15.4891 172.58 15.2218C170.455 14.7827 161.67 14.2291 156.923 14.2291H151.583C151.411 14.2291 147.506 14.2864 147.506 17.4362C147.506 17.9134 147.716 18.2952 148.118 18.5816C150.186 19.9942 156.808 18.9252 161.727 17.0353L162.033 17.8371C159.028 19.0015 154.626 20.0896 151.296 20.0896Z" fill="white"/>
<path d="M161.51 17.21L150.742 36.8802L151.498 37.2919L162.266 17.6216L161.51 17.21Z" fill="white"/>
<path d="M167.308 16.9559L157.959 38.0688L158.747 38.4159L168.096 17.303L167.308 16.9559Z" fill="white"/>
<path d="M131.466 32.7269H126.854V31.8488H131.466C131.505 31.8488 135.524 31.8106 138.491 28.3363C141.592 24.6902 147.085 18.467 147.123 18.3906L147.774 18.9633C147.717 19.0206 142.242 25.2438 139.142 28.8899C135.945 32.6696 131.696 32.7269 131.466 32.7269Z" fill="white"/>
<path d="M131.792 33.4715V32.5933C138.548 32.5933 140.864 29.2336 140.883 29.1954L148.693 19.3643L149.382 19.8988L141.592 29.6917C141.515 29.8444 139.046 33.4715 131.792 33.4715Z" fill="white"/>
<path d="M35.7841 47.1395H33.6213C32.3772 47.1395 31.3627 46.1278 31.3627 44.887V38.2438C31.3627 37.003 32.3772 35.9912 33.6213 35.9912H35.7841C37.0283 35.9912 38.0427 37.003 38.0427 38.2438V44.887C38.0427 46.1278 37.0283 47.1395 35.7841 47.1395ZM33.6021 36.8502C32.8365 36.8502 32.2049 37.4802 32.2049 38.2438V44.887C32.2049 45.6505 32.8365 46.2805 33.6021 46.2805H35.765C36.5306 46.2805 37.1622 45.6505 37.1622 44.887V38.2438C37.1622 37.4802 36.5306 36.8502 35.765 36.8502H33.6021Z" fill="white"/>
<path d="M42.7129 41.6418C44.0131 41.6418 45.0672 40.8555 45.0672 39.8855C45.0672 38.9156 44.0131 38.1293 42.7129 38.1293C41.4127 38.1293 40.3586 38.9156 40.3586 39.8855C40.3586 40.8555 41.4127 41.6418 42.7129 41.6418Z" fill="white"/>
<path d="M49.5077 41.6418C50.8079 41.6418 51.862 40.8555 51.862 39.8855C51.862 38.9156 50.8079 38.1293 49.5077 38.1293C48.2075 38.1293 47.1534 38.9156 47.1534 39.8855C47.1534 40.8555 48.2075 41.6418 49.5077 41.6418Z" fill="white"/>
<mask id="mask0_275_68" style="mask-type:alpha" maskUnits="userSpaceOnUse" x="7" y="0" width="132" height="41">
<path d="M138.052 1.37751C137.452 0.777515 136.652 0.577515 135.852 0.777515H132.251C128.651 0.777515 127.051 1.97751 126.951 1.97751L118.851 7.17751H118.552V7.37751L115.552 9.37751H115.351V9.47751L102.351 17.9775H88.8515C86.1515 17.9775 85.1515 19.3775 84.8515 20.1775H33.3515C33.1515 20.1775 27.6515 21.1775 24.2515 23.5775C23.5515 24.0775 22.9515 24.4775 22.5515 24.8775C21.5515 25.6775 20.4515 26.3775 19.2515 26.7775H19.1515C18.9515 26.7775 18.8515 26.8775 18.7515 26.9775L17.9515 27.2775C14.1515 28.7775 8.9515 31.4775 8.8515 31.4775C8.7515 31.4775 7.2515 32.4775 7.4515 33.6775C7.5515 34.5775 8.55149 35.2775 10.2515 35.8775C15.2515 37.3775 20.4515 38.2775 25.6515 38.4775H46.5515C46.6515 38.4775 53.9515 38.7775 56.7515 39.6775C57.9515 40.0775 59.1515 40.2775 60.4515 40.3775H60.7515C60.8515 40.4775 61.0515 40.5775 61.1515 40.5775L83.3515 40.0775C83.8515 40.4775 84.5515 40.7775 85.2515 40.6775H89.1515C89.4515 40.6775 89.6515 40.4775 89.6515 40.1775V38.6775C91.0515 38.5775 108.352 37.3775 120.052 30.2775C120.652 29.9775 122.551 28.9775 122.451 27.7775C122.451 27.3775 122.151 26.9775 121.851 26.7775C123.351 24.5775 128.952 16.6775 133.052 10.5775H135.952C136.252 10.5775 136.452 10.3775 136.452 10.0775C136.452 9.97751 136.452 9.87751 136.352 9.77751L134.951 7.77751C136.352 5.67751 137.451 4.17752 137.751 3.57751C138.251 2.97751 138.452 2.07751 138.052 1.37751ZM119.351 8.37751H133.251L132.552 9.47751H117.751L119.351 8.37751ZM32.5515 24.1775V26.1775L30.3515 26.2775V23.9775C31.1515 24.0775 31.8515 24.1775 32.5515 24.1775ZM29.2515 26.2775L27.0515 26.3775V23.6775L29.2515 23.8775V26.2775ZM23.3515 25.7775C23.7515 25.4775 24.3515 25.0775 25.0515 24.5775C25.3515 24.3775 25.7515 24.0775 26.1515 23.8775V26.4775L22.1515 26.6775C22.4515 26.4775 22.8515 26.1775 23.3515 25.7775ZM35.7515 37.4775V26.6775C35.7515 26.0775 35.9515 25.4775 36.2515 24.9775C36.5515 24.6775 37.0515 24.4775 37.4515 24.5775H40.0515C40.6515 24.5775 41.1515 24.6775 41.6515 25.0775C41.9515 25.3775 42.1515 25.8775 42.1515 26.3775V37.4775C42.2515 37.4775 35.7515 37.4775 35.7515 37.4775ZM61.3515 36.5775C61.5515 36.2775 61.9515 36.0775 62.3515 36.1775C63.9515 36.1775 71.5515 35.3775 78.5515 34.6775L61.7515 39.3775C61.4515 38.6775 60.9515 37.2775 61.3515 36.5775ZM88.5515 39.6775H85.1515C84.6515 39.6775 84.2515 39.5775 83.8515 39.2775C83.8515 39.1775 83.7515 39.1775 83.7515 39.0775L83.9515 37.7775C85.2515 36.7775 86.9515 36.4775 88.5515 36.7775V39.6775ZM83.1515 37.0775C83.0515 37.1775 82.9515 37.2775 82.9515 37.4775L82.7515 39.0775L65.5515 39.4775L85.3515 33.9775L91.4515 33.2775C92.7515 32.9775 94.0515 32.7775 95.3515 32.7775L95.1515 32.9775C93.5515 34.6775 91.7515 36.1775 89.8515 37.4775V36.3775C89.8515 36.1775 89.7515 35.9775 89.4515 35.8775C87.1515 35.2775 84.8515 35.6775 83.1515 37.0775ZM110.151 27.8775V29.9775C108.751 30.4775 107.351 30.8775 105.851 31.1775V26.6775C109.151 26.8775 110.051 27.6775 110.151 27.8775ZM104.751 31.4775C101.351 32.1775 97.9515 32.5775 96.2515 32.7775C96.2515 32.5775 96.2515 32.4775 96.1515 32.2775C95.7515 31.5775 93.9515 31.4775 91.0515 32.1775L86.3515 32.6775V26.6775H104.651V31.4775H104.751ZM119.552 29.2775C109.952 35.1775 96.5515 36.9775 91.5515 37.4775C92.9515 36.3775 94.3515 35.1775 95.6515 33.8775C97.0515 33.7775 105.951 32.7775 110.951 30.8775C111.151 30.7775 111.251 30.5775 111.251 30.3775V27.7775C111.151 27.6775 111.051 27.6775 110.951 27.5775C110.852 27.2775 110.251 25.6775 105.351 25.5775H85.8515C85.5515 25.5775 85.3515 25.7775 85.3515 26.0775V32.7775L84.9515 32.8775C77.1515 33.7775 64.4515 35.0775 62.3515 35.0775C61.5515 34.9775 60.8515 35.3775 60.4515 35.9775C60.0515 37.0775 60.0515 38.2775 60.5515 39.2775C59.3515 39.2775 58.1515 39.0775 57.0515 38.6775C54.1515 37.6775 46.8515 37.4775 46.5515 37.3775H43.3515V26.2775C43.3515 25.4775 43.0515 24.6775 42.5515 24.1775C41.8515 23.6775 41.0515 23.3775 40.1515 23.4775H37.6515C36.9515 23.4775 36.1515 23.7775 35.6515 24.2775C35.0515 24.9775 34.7515 25.8775 34.8515 26.6775V37.4775H25.8515C20.7515 37.2775 15.6515 36.4775 10.7515 34.9775C8.95149 34.4775 8.75149 33.8775 8.75149 33.7775C8.85149 33.2775 9.2515 32.8775 9.6515 32.6775C9.6515 32.6775 14.9515 29.9775 18.6515 28.5775L20.3515 27.8775L33.3515 27.2775C33.5515 27.2775 33.8515 27.1775 33.8515 26.8775V23.7775C33.8515 23.4775 33.6515 23.2775 33.3515 23.2775C32.1515 23.2775 30.2515 23.0775 28.7515 22.9775C30.4515 22.3775 32.1515 21.8775 33.8515 21.4775H85.5515C107.052 22.0775 120.952 27.5775 121.052 27.6775C121.252 27.6775 121.452 27.7775 121.552 27.9775C120.952 28.4775 120.352 29.0775 119.552 29.2775ZM114.552 24.3775L115.651 23.4775H118.151C118.451 23.4775 118.651 23.2775 118.651 22.9775V20.7775L123.951 14.4775L129.251 13.9775C125.551 19.3775 121.751 24.8775 120.751 26.2775C119.951 25.9775 117.852 25.2775 114.552 24.3775ZM130.151 12.7775L123.651 13.3775C123.551 13.3775 123.351 13.4775 123.251 13.5775L117.651 20.2775C117.551 20.3775 117.552 20.4775 117.552 20.5775V22.3775H115.351C115.251 22.3775 115.152 22.3775 115.052 22.4775L113.151 24.0775C104.251 21.8775 95.1515 20.5775 86.0515 20.2775C86.7515 19.4775 87.7515 19.0775 88.8515 19.1775H102.451C102.551 19.1775 102.651 19.1775 102.751 19.0775L115.851 10.5775H131.552L130.151 12.7775ZM134.951 9.47751H133.851L134.351 8.67751L134.951 9.47751ZM136.852 2.97751C136.551 3.57751 135.452 5.17751 133.951 7.27751H120.951L127.651 2.97751C129.051 2.17751 130.651 1.77751 132.351 1.87751H136.052C136.452 1.77751 136.751 1.77751 137.151 1.97751C137.251 2.37751 137.152 2.67751 136.852 2.97751Z" fill="white"/>
<path d="M51.9515 24.5775H49.7515V27.7775H51.9515V24.5775Z" fill="white"/>
<path d="M57.3515 24.5775H55.1516V27.7775H57.3515V24.5775Z" fill="white"/>
<path d="M61.6515 24.5775H59.4515V27.7775H61.6515V24.5775Z" fill="white"/>
<path d="M67.0515 24.5775H64.8515V27.7775H67.0515V24.5775Z" fill="white"/>
<path d="M71.3515 24.5775H69.1516V27.7775H71.3515V24.5775Z" fill="white"/>
<path d="M76.7514 24.5775H74.5515V27.7775H76.7514V24.5775Z" fill="white"/>
</mask>
<g mask="url(#mask0_275_68)">
<path d="M16.8498 32.6919C15.3543 33.2429 10.9462 36.8006 8.2675 37.8422C-0.314836 41.6544 -0.152116 34.1087 3.78352 31.9048C7.71916 29.7009 14.8033 25.6864 22.6746 20.4914C30.5458 15.2964 48.8859 16.7919 54.5532 17.028C60.2205 17.2642 91.4695 16.5558 97.8452 16.0835C102.946 15.7057 119.281 3.64694 126.811 -2.33521H145.152L144.128 -0.288745L139.484 8.44837C136.546 14.0107 130.291 25.4818 128.779 26.8672C126.89 28.5989 124.293 29.1498 120.908 28.835C117.523 28.5201 113.115 29.3072 109.731 30.2519C106.346 31.1965 101.151 30.488 98.4749 30.2519C95.7987 30.0157 88.9507 30.6454 83.8343 31.0389C78.718 31.4325 39.2042 31.8261 30.231 31.9048C21.2577 31.9835 18.3454 32.1409 16.8498 32.6919Z" fill="white"/>
</g>
</svg>
