<svg width="160" height="48" viewBox="0 0 160 48" fill="none" xmlns="http://www.w3.org/2000/svg">
<g clip-path="url(#clip0_274_268)">
<path d="M130.574 26.8235L127.295 31.474L127.131 31.6401H126.885L103.525 33.7163L103.033 33.7993L102.787 32.8858L103.361 32.7197L129.918 25.9931L131.311 25.6609L130.574 26.8235ZM126.639 30.6436L128.934 27.4048L110.246 32.1384L126.639 30.6436Z" fill="white"/>
<path d="M12.9509 28.3183C14.1804 28.2353 14.7541 28.2353 14.8361 28.2353C16.1476 28.0692 16.9673 28.3183 17.3771 28.7335C17.623 28.8996 17.705 29.1487 17.705 29.3979C17.705 29.647 17.623 29.8962 17.3771 30.0622C16.9673 30.4775 16.1476 30.7266 14.8361 30.5605C14.7541 30.5605 14.1804 30.4775 12.9509 30.4775C12.1312 30.4775 11.5574 30.2283 11.3115 29.8962C11.1476 29.7301 11.1476 29.564 11.1476 29.3979C11.1476 29.2318 11.2296 29.0657 11.3115 28.8996C11.5574 28.5674 12.1312 28.3183 12.9509 28.3183ZM14.4263 30.0622V29.9792C14.4263 29.8131 14.3443 29.647 14.3443 29.4809C14.3443 29.3148 14.3443 29.1487 14.4263 28.9827V28.8996C14.0984 28.8996 13.6066 28.9827 12.9509 28.9827C12.2951 28.9827 11.8853 29.1487 11.7214 29.3979C11.6394 29.4809 11.6394 29.4809 11.6394 29.564C11.6394 29.647 11.6394 29.647 11.7214 29.7301C11.8853 29.8962 12.2951 30.1453 12.9509 30.1453C13.6066 29.9792 14.0984 30.0622 14.4263 30.0622ZM14.8361 28.7335C14.7541 28.8166 14.7541 28.8996 14.7541 28.9827C14.7541 29.1487 14.6722 29.2318 14.6722 29.3979C14.6722 29.564 14.6722 29.7301 14.7541 29.8131C14.7541 29.8962 14.7541 29.9792 14.8361 30.0622C15.9017 30.1453 16.6394 29.9792 16.9673 29.647C17.0492 29.564 17.1312 29.4809 17.1312 29.3148C17.1312 29.2318 17.0492 29.1487 16.9673 28.9827C16.6394 28.8166 15.9836 28.6505 14.8361 28.7335Z" fill="white"/>
<path fill-rule="evenodd" clip-rule="evenodd" d="M12.623 27.9861C13.0328 27.9861 13.4427 28.1522 13.7705 28.4013C13.5246 28.4013 13.1968 28.4013 12.7869 28.4844C11.7214 28.5674 11.1476 28.9826 11.1476 29.3978C11.1476 28.6504 11.8033 27.9861 12.623 27.9861ZM13.7705 30.3113C13.5246 30.5605 13.1148 30.7266 12.623 30.7266C11.8033 30.7266 11.1476 30.1453 11.1476 29.3148C11.1476 29.73 11.7214 30.1453 12.7869 30.2283C13.1968 30.3113 13.4427 30.3113 13.7705 30.3113Z" fill="white"/>
<path d="M147.131 19.4325L147.869 19.5986L147.705 20.0969L146.639 19.8477L146.475 19.5156L151.229 7.80623L151.311 7.55709L151.557 7.64014L152.623 7.88927L152.459 8.38754L151.639 8.13841L147.131 19.4325ZM128.606 27.9031L136.803 24.9135L139.262 20.4291C138.033 19.6817 135.246 19.5156 133.443 19.3495C133.197 19.3495 132.869 19.3495 132.623 19.2664C132.459 20.1799 132.295 20.8443 132.295 20.8443L131.803 20.7612C131.803 20.7612 132.623 16.4429 133.115 13.6194C133.606 10.7958 133.443 10.4637 133.443 10.4637L133.934 10.2976C133.934 10.2976 134.098 10.7128 133.606 13.6194C133.361 15.1972 132.951 17.1903 132.705 18.6851C132.951 18.6851 133.197 18.6851 133.443 18.7682C135.328 18.9343 138.197 19.1003 139.508 19.9308L148.361 3.90311L148.852 4.15225L135.41 28.7336L134.918 28.4844L136.475 25.6609L128.852 28.4844L128.606 27.9031ZM149.836 4.0692L138.197 28.2353L137.705 27.9862L149.426 3.82007L149.836 4.0692Z" fill="white"/>
<path fill-rule="evenodd" clip-rule="evenodd" d="M38.1967 19.4325L39.918 19.7647L34.5081 23.5847C34.5081 23.5847 34.0163 23.9169 33.4426 23.9169C32.9508 23.6678 32.459 23.2526 31.8032 22.8373L38.1967 19.4325ZM56.5573 21.5917H58.5245C58.8524 21.5917 59.1803 21.9238 59.1803 22.256V25.4117C59.1803 25.7439 58.8524 26.0761 58.5245 26.0761H56.5573C56.2295 26.0761 55.9016 25.7439 55.9016 25.4117V22.256C55.9016 21.9238 56.2295 21.5917 56.5573 21.5917ZM63.2786 21.5917H65.2458C65.5737 21.5917 65.9016 21.9238 65.9016 22.256V25.4117C65.9016 25.7439 65.5737 26.0761 65.2458 26.0761H63.2786C62.9508 26.0761 62.6229 25.7439 62.6229 25.4117V22.256C62.6229 21.9238 62.9508 21.5917 63.2786 21.5917ZM71.8032 21.5917H73.7704C74.0983 21.5917 74.4262 21.9238 74.4262 22.256V25.4117C74.4262 25.7439 74.0983 26.0761 73.7704 26.0761H72.2131L73.1967 24.9135C73.1967 24.9135 72.2131 24.5813 71.1475 24.4982V22.256C71.1475 21.9238 71.4754 21.5917 71.8032 21.5917ZM82.459 21.5917H84.4262C84.754 21.5917 85.0819 21.9238 85.0819 22.256V25.4117C85.0819 25.7439 84.754 26.0761 84.4262 26.0761H82.459C82.1311 26.0761 81.8032 25.7439 81.8032 25.4117V22.256C81.8032 21.9238 82.1311 21.5917 82.459 21.5917ZM40.9836 20.0138L42.7868 20.346C42.7868 20.346 43.8524 20.5121 43.8524 22.0899C43.7704 23.6678 43.8524 23.3356 43.8524 23.3356C43.8524 23.3356 43.6885 25.0796 41.3934 24.9965C40.4098 24.9965 39.1803 24.9965 38.1967 24.9135L37.2131 22.4221L40.4098 20.1799C40.4098 20.1799 40.6557 19.9308 40.9836 20.0138ZM37.5409 24.9965C36.5573 24.9965 35.8196 24.9965 35.8196 24.9965C35.4917 24.9965 34.5901 24.7474 34.5901 24.3321C34.5901 24.083 36.6393 22.7543 36.6393 22.7543L37.5409 24.9965Z" fill="white"/>
<path d="M65.9836 37.038L61.8032 37.2041L62.0491 43.1834L62.7049 44.429C63.1147 43.9308 64.1803 43.0173 65.9016 42.9342C65.9016 41.6885 65.9016 40.2768 65.9016 40.2768V40.1937L65.9836 40.1107L68.1147 38.2007V37.4533C67.7049 37.4533 67.377 37.3702 67.0491 37.2872C66.7213 37.2041 66.3114 37.1211 65.9836 37.038ZM11.3934 29.647L7.21307 29.8131V29.3148L11.3934 29.1488V29.647ZM16.1475 30.1453C16.1475 30.1453 16.8032 30.6436 17.6229 30.6436H18.5245V25.5778C13.1147 26.3252 7.29504 27.2387 7.29504 27.2387L7.1311 26.1591C7.1311 26.1591 20.0819 24.1661 25.2459 23.7508C29.5082 23.4186 30.2459 23.1695 30.4098 23.0865L40.7377 17.4394C40.7377 17.4394 42.295 16.692 46.1475 16.692C47.9508 16.692 73.6885 16.7751 87.0491 16.7751C87.459 16.692 88.5245 16.609 89.0983 16.1107C90 15.4463 90.5737 14.865 91.3114 14.1176C91.4754 13.9515 91.6393 13.7854 91.8032 13.6193L91.8852 13.5363H91.9672L93.1967 13.6193H93.6065L93.3606 14.0346L91.6393 16.8581H94.836C94.836 16.8581 95.0819 16.8581 95.6557 16.8581L130.41 11.7924C130.41 11.7924 132.213 11.7093 134.098 9.46709C135.574 7.72315 137.213 5.64702 138.033 4.56744C134.098 3.73699 134.344 2.40827 134.344 2.40827V2.32522V2.24218C134.836 1.24564 136.311 0.747368 138.033 0.498233C139.672 0.249098 141.475 0.166053 142.951 0.0830078C143.934 0.0830078 145.984 0.166053 148.361 0.249098C152.705 0.498233 157.869 0.830413 159.016 0.913458H159.426L159.508 1.32868L159.59 2.32522L159.672 2.90654H159.098C159.098 2.90654 159.098 2.90654 159.016 2.90654C158.852 2.98958 158.443 3.15567 157.623 3.40481C157.213 3.5709 156.229 3.73699 154.836 3.90308L145.41 27.0726L145.328 27.3218L145 27.4048L127.623 30.3944L127.459 29.3148L144.508 26.4083L153.607 4.06917C151.639 4.3183 149.262 4.56744 146.885 4.73353C143.852 4.89962 140.902 4.98266 139.098 4.73353C138.525 5.56398 136.475 8.05533 134.836 10.0484C132.787 12.4567 130.656 12.7889 130.41 12.7889L101.147 17.0242C105.738 17.2733 111.967 17.6885 117.623 18.1868C128.115 19.2664 131.803 20.1799 131.803 20.1799C131.803 20.1799 134.672 21.0934 138.77 20.9273L138.279 22.0069C134.508 22.0899 131.803 21.2595 131.475 21.1764C131.475 21.1764 127.787 20.1799 117.377 19.1834C106.967 18.1038 94.5082 17.6885 94.5082 17.6885C93.6885 17.6885 50.6557 17.6055 45.6557 17.6055C42.0491 17.6055 40.6557 18.2699 40.6557 18.2699L30.3278 23.8339C30.0819 24 29.7541 24.083 29.4262 24.1661V37.7854H28.8524V24.4152C28.7704 24.4152 28.6065 24.4152 28.5245 24.4982V37.9515H27.9508V31.2249H19.0983V37.2041H18.5245V31.2249H17.8688V37.038H17.295V31.2249C16.3934 31.1418 15.7377 30.6436 15.7377 30.6436L16.1475 30.1453ZM19.0983 25.4948V30.6436H28.6065V24.5813C27.377 24.7474 26.0655 24.8304 25.3278 24.8304C23.7704 24.9135 21.4754 25.1626 19.0983 25.4948ZM135.656 2.57436C135.738 2.74045 136.229 3.07263 139.344 3.65394C141.066 3.98612 144.098 3.90308 147.213 3.65394C151.885 3.32176 156.639 2.74045 157.623 2.40827C158.279 2.24218 158.607 2.07609 158.852 1.99304V1.82695C157.131 1.74391 152.459 1.41173 148.607 1.24564C146.229 1.16259 144.18 1.07955 143.279 1.07955C141.885 1.16259 140.082 1.16259 138.525 1.49477C137.131 1.66086 136.066 1.99304 135.656 2.57436ZM91.2295 16.692L92.8688 13.9515H92.2131C92.0491 14.1176 91.9672 14.2837 91.8032 14.3667C91.0655 15.1142 90.4918 15.7785 89.5081 16.4429C89.4262 16.5259 89.2623 16.609 89.1803 16.692H91.2295ZM84.5901 38.2837L85.9016 40.1937H86.3114C85.9016 39.5294 85.5737 39.1142 85.8196 38.2837H84.5901ZM86.3934 38.2837C86.1475 38.9481 86.3934 39.3633 86.8032 39.9446C86.8852 40.0276 86.9672 40.1937 87.0491 40.2768L87.295 40.692H86.8032L85.7377 40.7751H85.5737L85.4918 40.692L83.8524 38.3667C79.6721 38.3667 78.1147 38.3667 77.7868 38.3667C77.459 39.3633 76.6393 40.4429 74.5901 40.4429C74.3442 40.4429 74.0983 40.4429 73.8524 40.4429C71.3934 40.4429 69.836 40.5259 67.8688 39.1972L66.4754 40.4429C66.4754 40.8581 66.3934 42.1868 66.4754 43.2664V43.5155H66.2295C63.8524 43.5155 62.9508 45.0934 62.9508 45.1764L62.7049 45.5917L62.459 45.1764L61.5573 43.5155V43.4325V43.3494L61.3114 37.038V36.7889H61.5573L65.9836 36.6228H66.0655H66.1475C66.5573 36.7058 66.8852 36.8719 67.377 36.8719C67.7868 36.955 68.1967 36.955 68.6885 37.038H68.7705H68.8524L69.0163 37.1211V37.2872L68.9344 38.3667V38.4498L68.8524 38.5328L68.5245 38.865C69.836 39.6955 70.9836 39.8616 72.459 39.9446L70.8196 37.6193L71.2295 37.2872L73.0327 39.9446C73.3606 39.9446 73.6065 39.9446 74.0163 39.9446C74.2623 39.9446 74.5081 39.9446 74.7541 39.9446C77.377 39.9446 77.6229 37.9515 77.6229 37.2041H73.8524V36.7058H77.8688H78.1147V36.955C78.1147 36.955 78.1147 37.1211 78.1147 37.3702C78.8524 37.3702 81.2295 37.3702 87.1311 37.3702C94.4262 37.2872 113.852 31.9723 113.934 31.9723L114.18 32.9688C114.098 32.9688 94.5901 38.3667 87.1311 38.3667C87.0491 38.2837 86.3934 38.2837 86.3934 38.2837Z" fill="white"/>
<path d="M50.1639 38.3668L52.7869 42.1038H54.1803L54.0983 41.9377C53.2787 40.8581 52.2951 39.4464 52.9508 38.3668H50.1639ZM53.6065 38.2837C52.7869 39.1972 53.7705 40.526 54.5082 41.6886C54.6721 41.8547 54.7541 42.1038 54.918 42.2699L55.1639 42.6851H54.6721H52.6229H52.459V42.519L49.5082 38.3668H38.6885L28.6885 38.4498C28.1147 38.4498 25.9016 38.4498 23.0328 38.2007C21.3934 38.0346 19.5082 37.8685 17.6229 37.5363C15.3279 37.2042 12.8688 36.6228 11.0656 36.0415C9.42622 35.4602 8.27867 34.7958 8.19671 34.0484L7.95081 31.8062L9.01638 31.6401L9.26228 33.8824C9.26228 34.1315 10.1639 34.5467 11.3934 34.9619C13.1147 35.5433 15.4918 36.0415 17.7869 36.3737C19.6721 36.7059 21.4754 36.872 23.1147 37.0381C25.9836 37.2872 28.1147 37.2872 28.6885 37.2872L38.6065 37.2042H53.5246L53.6065 38.2837Z" fill="white"/>
<path d="M79.672 18.519H93.5245C93.8523 18.519 94.0982 18.6021 94.2622 18.8512C94.4261 19.1004 94.5901 19.3495 94.5901 19.5986V34.5467C94.5901 34.8789 94.5081 35.128 94.2622 35.2941C94.0982 35.4602 93.7704 35.6263 93.5245 35.6263H90.3278H89.9179L90.0819 35.2111C90.1638 34.962 89.9999 34.7128 89.5901 34.3806C89.1802 33.9654 88.4425 33.5502 87.5409 33.135C86.6392 32.7197 85.4917 32.2215 84.1802 31.8062C83.2786 31.5571 82.3769 31.308 81.4753 31.1419C80.5737 30.9758 79.672 30.8097 78.8523 30.7267H78.6064V30.4775V19.6817C78.6064 19.3495 78.6884 19.1004 78.9343 18.9343C79.0982 18.6851 79.4261 18.519 79.672 18.519ZM93.5245 19.1004H79.672C79.5081 19.1004 79.3441 19.1834 79.2622 19.2664C79.1802 19.3495 79.0982 19.5156 79.0982 19.6817V30.2284C79.9179 30.3114 80.7376 30.4775 81.5573 30.6436C82.4589 30.8097 83.3605 31.0588 84.2622 31.391C85.5737 31.8062 86.8032 32.3045 87.7048 32.7197C88.6884 33.218 89.4261 33.6332 89.9179 34.0485C90.3278 34.4637 90.5737 34.7959 90.5737 35.2111H93.4425C93.6064 35.2111 93.7704 35.128 93.8523 35.045C93.9343 34.962 94.0163 34.7959 94.0163 34.6298V19.6817C94.0163 19.5156 93.9343 19.3495 93.8523 19.2664C93.7704 19.1004 93.6884 19.1004 93.5245 19.1004Z" fill="white"/>
<path d="M48.1146 18.519H53.0327C53.4425 18.519 53.7704 18.6851 54.0163 18.9343C54.2622 19.1834 54.4261 19.5156 54.4261 19.9308V33.301C54.4261 33.7163 54.2622 34.0485 54.0163 34.2976C53.7704 34.5467 53.4425 34.7128 53.0327 34.7128H48.1146C47.7048 34.7128 47.3769 34.5467 47.131 34.2976C46.8851 34.0485 46.7212 33.7993 46.7212 33.3841V20.0139C46.7212 19.5986 46.8851 19.2664 47.131 19.0173C47.3769 18.6851 47.7048 18.519 48.1146 18.519ZM53.0327 19.1004H48.1146C47.8687 19.1004 47.6228 19.1834 47.4589 19.3495C47.295 19.5156 47.213 19.7647 47.213 20.0139V33.3841C47.213 33.6332 47.295 33.8824 47.4589 34.0485C47.6228 34.2145 47.8687 34.2976 48.1146 34.2976H53.0327C53.2786 34.2976 53.5245 34.2145 53.6884 34.0485C53.8523 33.8824 53.9343 33.6332 53.9343 33.3841V20.0139C53.9343 19.7647 53.8523 19.5156 53.6884 19.3495C53.5245 19.1834 53.2786 19.1004 53.0327 19.1004Z" fill="white"/>
<path d="M28.1148 37.6194H42.705H42.9509V37.8685V39.6125V39.8616H42.705H28.1148H27.8689V39.6125V37.8685V37.6194H28.1148ZM42.4591 38.1177H28.3607V39.3633H42.4591V38.1177Z" fill="white"/>
<path d="M30.2458 35.211C30.2458 34.9618 30.3278 34.7127 30.4918 34.5466C30.6557 34.3805 30.9016 34.2975 31.1475 34.2975H34.2622C34.5081 34.2975 34.754 34.3805 34.918 34.5466C35.0819 34.7127 35.1639 34.9618 35.1639 35.211V36.7888V37.038H34.918H30.4918H30.2458V36.7888V35.211ZM30.8196 34.8788C30.7377 34.9618 30.6557 35.0449 30.6557 35.211V36.5397H34.6721V35.211C34.6721 35.0449 34.5901 34.9618 34.5081 34.8788C34.4262 34.7958 34.3442 34.7127 34.1803 34.7127H31.1475C30.9836 34.7127 30.9016 34.7958 30.8196 34.8788Z" fill="white"/>
<path d="M38.1968 35.211C38.1968 34.9618 38.2787 34.7127 38.4427 34.5466C38.6066 34.3805 38.8525 34.2975 39.0984 34.2975H42.2132C42.4591 34.2975 42.705 34.3805 42.8689 34.5466C43.0328 34.7127 43.1148 34.9618 43.1148 35.211V36.7888V37.038H42.8689H38.4427H38.1968V36.7888V35.211ZM38.7705 34.8788C38.6886 34.9618 38.6066 35.0449 38.6066 35.211V36.5397H42.623V35.211C42.623 35.0449 42.541 34.9618 42.4591 34.8788C42.3771 34.7958 42.2951 34.7127 42.1312 34.7127H39.0164C38.9345 34.7127 38.8525 34.7958 38.7705 34.8788Z" fill="white"/>
<path fill-rule="evenodd" clip-rule="evenodd" d="M15.4918 30.8927H15.7377H15.8196V30.9758V31.7232V31.8062H15.7377H15.4918C15.2459 31.8062 15.0819 31.7232 14.918 31.6401C14.7541 31.5571 14.5082 31.474 14.0164 31.474V31.3079C14.5082 31.3079 14.6721 31.2249 14.918 31.1419C15.0819 30.9758 15.2459 30.8927 15.4918 30.8927ZM22.5409 31.6401H22.9508H23.0328V31.7232V33.1349V33.218H22.9508H22.5409C22.1311 33.1349 21.9672 33.0519 21.7213 32.8858C21.3934 32.7197 21.0655 32.5536 20.3278 32.4706V32.3875C21.0655 32.3875 21.3934 32.2214 21.7213 31.9723C21.8852 31.8062 22.1311 31.7232 22.5409 31.6401ZM16.4754 26.4913H16.7213H16.8032V26.5744V27.3218V27.4048H16.7213H16.4754C16.2295 27.4048 16.0655 27.3218 15.9016 27.2387C15.7377 27.1557 15.4918 27.0726 15 27.0726V26.9066C15.4918 26.9066 15.6557 26.8235 15.9016 26.7405C16.0655 26.5744 16.2295 26.5744 16.4754 26.4913Z" fill="white"/>
<path d="M6.63931 26.8235C6.63931 26.8235 6.31144 24.4152 6.39341 21.8408C6.47537 19.7647 6.55734 17.8546 6.63931 17.1903C6.39341 17.1903 5.98357 17.1903 5.81964 17.4394C5.4098 18.0207 5.08193 18.7681 4.918 19.5986C4.6721 20.5121 4.59013 21.5086 4.59013 22.4221C4.59013 23.1695 4.6721 23.9169 4.83603 24.5813C4.6721 24.6643 4.50816 24.7474 4.34423 24.9135C4.18029 24.083 4.09832 23.2526 4.09832 22.4221C4.09832 21.5086 4.18029 20.429 4.42619 19.4325C4.6721 18.602 4.99996 17.7716 5.4098 17.1072C5.9016 16.4429 6.96718 16.692 6.96718 16.692L7.21308 16.775V17.0242C7.21308 17.0242 7.04914 19.3494 6.96718 21.8408C6.88521 24.4152 7.21308 26.7404 7.21308 26.7404C7.13111 26.7404 6.63931 26.8235 6.63931 26.8235ZM7.13111 32.3875C7.13111 32.3875 6.80324 34.7128 6.88521 37.2872C6.96718 39.8615 7.13111 42.1038 7.13111 42.1038V42.3529L6.88521 42.4359C6.88521 42.4359 5.73767 42.6851 5.32783 42.0207C4.83603 41.3564 4.50816 40.5259 4.34423 39.6955C4.09832 38.6989 4.01636 37.7024 4.01636 36.7058C4.01636 35.7923 4.18029 34.9619 4.34423 34.2145C4.50816 33.4671 4.83603 32.7197 5.08193 31.8892L5.57373 32.0553C5.24587 32.8027 4.99996 33.4671 4.83603 34.2975C4.6721 35.0449 4.50816 35.8754 4.50816 36.7058C4.50816 37.6193 4.59013 38.6159 4.83603 39.5294C4.99996 40.3598 5.32783 41.1072 5.73767 41.6885C5.9016 41.9377 6.31144 41.9377 6.55734 41.9377C6.47537 41.2733 6.39341 39.3633 6.31144 37.2872C6.22947 34.7128 6.55734 32.3045 6.55734 32.3045C6.63931 32.3045 7.13111 32.3875 7.13111 32.3875Z" fill="white"/>
<path d="M7.13115 32.9688C3.93443 32.3875 1.88525 31.7231 0.819672 30.9757C0.327869 30.4774 0 30.0622 0 29.5639C0 29.0657 0.327869 28.5674 0.901639 28.1522C1.55738 27.6539 2.62295 27.2387 4.18033 26.8235C4.26229 27.1556 4.34426 27.5709 4.42623 27.903C3.03279 28.2352 2.04918 28.6504 1.47541 29.0657C1.22951 29.2318 1.06557 29.4809 1.06557 29.5639C1.06557 29.73 1.22951 29.8961 1.47541 30.0622C2.29508 30.6435 4.01639 31.2248 6.72131 31.8062V29.5639V28.4013C6.80328 28.3183 6.88525 28.2352 6.88525 28.2352C6.88525 28.2352 6.88525 28.2352 6.88525 28.0691C6.88525 27.9861 6.80328 27.9861 6.72131 27.82V27.2387L6.47541 27.4048C6.47541 27.3217 6.47541 27.3217 6.47541 27.2387C6.39344 26.9895 6.39344 26.6574 6.39344 26.3252C6.63934 26.2421 6.88525 26.2421 7.13115 26.1591L7.78689 26.076V26.7404V29.647V32.0553C7.95082 32.0553 8.19672 32.1383 8.44262 32.1383L8.36066 33.2179C8.19672 33.2179 7.95082 33.1349 7.78689 33.1349L7.37705 32.9688C7.29508 32.9688 7.21311 32.9688 7.13115 32.9688Z" fill="white"/>
<path fill-rule="evenodd" clip-rule="evenodd" d="M66.5573 42.1868C68.1967 42.1868 69.4262 43.5155 69.4262 45.0933C69.4262 46.7542 68.1147 47.9999 66.5573 47.9999C64.918 47.9999 63.6885 46.6712 63.6885 45.0933C63.6885 44.5951 63.7704 44.0968 64.0163 43.7646C64.5901 43.4324 65.3278 43.1833 66.2295 43.1833C66.2295 42.8511 66.2295 42.5189 66.2295 42.1868C66.3114 42.1868 66.4754 42.1868 66.5573 42.1868Z" fill="white"/>
<path fill-rule="evenodd" clip-rule="evenodd" d="M66.5574 43.5155C67.459 43.5155 68.1148 44.2629 68.1148 45.0934C68.1148 46.0069 67.377 46.6712 66.5574 46.6712C65.6557 46.6712 65 45.9238 65 45.0934C65 44.1799 65.7377 43.5155 66.5574 43.5155ZM66.5574 44.2629C66.9672 44.2629 67.377 44.5951 67.377 45.0934C67.377 45.5916 67.0492 45.9238 66.5574 45.9238C66.0656 45.9238 65.7377 45.5916 65.7377 45.0934C65.7377 44.5951 66.1475 44.2629 66.5574 44.2629Z" fill="white"/>
<path fill-rule="evenodd" clip-rule="evenodd" d="M28.7704 43.1833C29.9999 43.3494 30.9835 44.5121 30.8196 45.8408C30.6556 47.1695 29.5081 48.166 28.1966 47.9999C26.8852 47.8339 25.9015 46.6712 26.0655 45.3425C26.2294 44.0138 27.295 43.1003 28.6065 43.1833L28.4425 44.5121C27.8688 44.5121 27.377 44.9273 27.377 45.5086C27.295 46.0899 27.7868 46.6712 28.3606 46.6712C28.9343 46.7543 29.5081 46.256 29.5081 45.6747C29.5901 45.0934 29.1802 44.5951 28.6065 44.5121L28.7704 43.1833Z" fill="white"/>
<path d="M28.3608 42.6851L28.9345 42.7682L29.0165 42.2699L28.4427 42.1869L28.3608 42.6851ZM27.9509 45.5087L28.1968 43.1004H28.0329V42.9343L28.1149 42.0208V41.8547H28.2788L28.3608 40.7751H28.1968V40.609L28.2788 39.6955V39.5294H28.4427L29.5083 39.6125H29.6722V39.7786L29.5903 40.692V40.8581H29.4263L29.3444 41.9377H29.5083V42.1038L29.4263 43.0173V43.1834H29.2624L28.9345 45.6747V45.8408H28.7706L28.1968 45.7578H28.0329L27.9509 45.5087ZM28.6067 43.1004L28.3608 45.3426H28.5247L28.7706 43.1004H28.6067ZM28.7706 40.7751L28.6886 41.7716H28.8526L28.9345 40.692L28.7706 40.7751ZM28.6067 40.2768L29.1804 40.3599L29.2624 39.8616L28.6886 39.7786L28.6067 40.2768Z" fill="white"/>
<path fill-rule="evenodd" clip-rule="evenodd" d="M28.4426 45.0104C28.7705 45.0104 29.0164 45.3426 28.9344 45.6747C28.9344 46.0069 28.6066 46.256 28.2787 46.173C27.9508 46.173 27.7049 45.8408 27.7869 45.5086C27.8688 45.1765 28.1967 45.0104 28.4426 45.0104Z" fill="white"/>
<path d="M28.3608 40.5259C28.5247 40.4428 28.5247 40.2767 28.5247 40.1937C28.5247 40.1106 28.2788 40.0276 28.1968 40.0276L26.2296 40.858C26.0657 40.9411 26.0657 41.1072 26.0657 41.1902C26.0657 41.2733 26.1476 41.2733 26.1476 41.3563L27.869 42.4359C28.0329 42.5189 28.1968 42.4359 28.1968 42.3528C28.2788 42.1868 28.1968 42.0207 28.1149 42.0207L26.8034 41.2733C26.8853 41.1902 28.3608 40.5259 28.3608 40.5259Z" fill="white"/>
<path d="M6.72127 27.1557C6.80324 27.5709 6.96717 27.737 6.96717 27.82C7.04914 27.9031 7.04914 27.9031 7.04914 27.9861V28.1522L7.13111 28.3183L6.96717 28.4014C6.96717 28.4014 6.72127 28.5675 6.72127 28.7335V28.8166C6.55734 29.3979 6.47537 29.8131 5.73766 29.8131C5.24586 29.8131 4.75406 29.3979 4.42619 28.7335C4.09832 28.0692 3.85242 27.2387 3.85242 26.4083C3.85242 25.9931 3.85242 25.4948 4.01635 25.1626C4.18029 24.7474 4.42619 24.4152 4.83602 24.3322C5.98356 24 6.47537 24.3322 6.6393 24.9135C6.72127 25.2457 6.72127 25.6609 6.72127 26.0761C6.6393 26.4083 6.6393 26.8235 6.72127 27.1557ZM6.55734 28.1522C6.47537 27.9861 6.31143 27.82 6.22947 27.2387C6.1475 26.8235 6.1475 26.4083 6.1475 25.9931C6.1475 25.5778 6.1475 25.2457 6.06553 24.9965C5.98356 24.6643 5.6557 24.5813 4.91799 24.7474C4.67209 24.8304 4.59012 24.9965 4.50815 25.2457C4.42619 25.5778 4.42619 25.91 4.42619 26.3252C4.42619 27.0726 4.67209 27.82 4.91799 28.4014C5.16389 28.8996 5.49176 29.2318 5.73766 29.2318C6.06553 29.2318 6.1475 28.9827 6.22947 28.6505V28.5675C6.31143 28.4844 6.47537 28.3183 6.55734 28.1522Z" fill="white"/>
<path d="M54.2623 36.5398V36.4567C54.2623 36.4567 54.2623 36.4567 54.2623 36.3737L55.1639 33.8823C54.2623 34.6297 53.1967 35.7093 52.8688 36.6228V36.7059C52.8688 36.872 53.1147 37.038 53.4426 37.2041C54.0164 37.4533 54.836 37.6194 55.7377 37.7854C55.8196 37.7854 55.9016 37.7854 55.9016 37.7854C54.6721 37.3702 54.2623 36.872 54.2623 36.872C54.3442 36.872 54.2623 36.7059 54.2623 36.5398ZM55.9836 31.9723L57.2951 28.5675C57.2951 28.4844 57.7869 27.1557 60.3278 26.9896C61.3934 26.9066 62.2131 26.8235 62.8688 26.6574C63.5246 26.4913 64.0164 26.3252 64.5082 26.0761L64.6721 25.9931C65.9836 25.4117 69.1803 24 70.4918 23.9169C71.8033 23.8339 73.2787 24.4152 73.2787 24.4152L74.0164 24.6643L73.5246 25.2457L71.2295 27.9031C71.0656 28.0692 71.3934 28.7335 72.0492 29.564C72.541 29.564 78.7705 29.1488 84.3442 30.9758C87.1311 31.8893 89.1803 32.8858 90.0819 33.7162C90.4918 34.1315 90.7377 34.4636 90.8197 34.8789C90.9016 35.3771 90.7377 35.7924 90.2459 36.1245C89.6721 36.5398 88.6885 36.7889 87.1311 36.955C81.2295 37.5363 77.7869 37.9515 77.7869 37.9515V37.6194C77.6229 37.4533 77.459 37.2041 77.1311 36.872C74.918 34.5467 69.2623 28.4844 70.4918 27.1557L71.6393 25.827C70.8197 25.9931 70 26.1591 69.0164 26.1591C68.3606 26.1591 67.9508 25.91 67.8688 25.7439C66.8852 26.1591 65.9016 26.5744 65.3278 26.8235L65.1639 26.9066C64.5901 27.1557 64.0164 27.4048 63.2787 27.5709C62.541 27.737 61.7213 27.9031 60.5737 27.9031C58.6885 27.9861 58.4426 28.7335 58.4426 28.7335L55.5737 36.2076C56.1475 36.6228 57.7869 37.3702 61.7213 37.3702V38.0346V39.1142C60.1639 39.1142 57.7869 39.0311 55.8196 38.6989C54.836 38.5328 53.9344 38.2837 53.2787 38.0346C52.459 37.6194 51.9672 37.1211 52.0492 36.4567C52.0492 36.3737 52.0492 36.2906 52.1311 36.1245C52.6229 34.4636 55.3278 32.4706 55.9836 31.9723ZM78.6885 30.8927V36.7889C78.6885 36.7889 78.6885 36.7889 78.6885 36.872C80.0819 36.7059 82.9508 36.3737 87.0492 35.9585C88.4426 35.8754 89.2623 35.6263 89.6721 35.3771C89.7541 35.2941 89.836 35.2111 89.836 35.2111C89.836 35.045 89.6721 34.8789 89.4262 34.7128C88.5246 33.9654 86.6393 33.0519 84.0164 32.1384C82.2131 31.474 80.4098 31.1418 78.6885 30.8927ZM78.1147 36.5398V30.8927C75.8197 30.6436 73.8524 30.6436 72.8688 30.7266C74.4262 32.6367 76.7213 35.045 77.8688 36.2906L78.1147 36.5398ZM68.4426 37.2041H68.5246L68.4426 38.2837H68.5246C70.0819 38.1176 70.9016 37.8685 70.9016 37.8685C71.2295 37.7854 71.3934 37.5363 71.3115 37.2041C71.2295 36.872 70.9836 36.7059 70.6557 36.7889C70.7377 36.7889 69.918 36.955 68.4426 37.2041ZM72.2131 25.2457C72.2951 25.1626 70.7377 25.0796 70.5737 25.0796C70.0819 25.0796 69.2623 25.3287 68.3606 25.7439C68.4426 25.827 68.6885 25.827 68.9344 25.827C70.0819 25.7439 71.0655 25.4948 72.2131 25.2457Z" fill="white"/>
<path fill-rule="evenodd" clip-rule="evenodd" d="M63.6884 35.2941L69.5081 34.4637C69.5081 34.4637 71.5573 34.1315 73.1966 34.1315C74.0983 34.1315 75.0819 34.1315 75.9835 34.1315C75.9835 34.1315 76.1474 36.7059 72.7048 37.0381C69.1802 37.3703 65.5737 37.4533 63.6884 35.2941ZM63.6064 32.6367L68.6064 31.8893C68.6064 31.8893 70.4097 31.5571 71.8032 31.6402C73.1966 31.6402 73.1966 31.6402 73.1966 31.6402H74.2622C74.2622 31.6402 74.4261 33.7993 71.3933 34.1315C68.3605 34.4637 65.2458 34.4637 63.6064 32.6367Z" stroke="white" stroke-width="0.65"/>
</g>
<defs>
<clipPath id="clip0_274_268">
<rect width="160" height="48" fill="white"/>
</clipPath>
</defs>
</svg>
