<svg xmlns="http://www.w3.org/2000/svg" xmlns:xlink="http://www.w3.org/1999/xlink" viewBox="0 0 257.77 367.25"><defs><style>.cls-1{isolation:isolate;}.cls-2{fill:#fffef6;}.cls-3{fill:#797b79;}.cls-3,.cls-6,.cls-7{opacity:0.5;}.cls-4{fill:#f2f1ea;}.cls-5{fill:#d2d2ce;}.cls-13,.cls-6,.cls-7,.cls-9{mix-blend-mode:multiply;}.cls-6{fill:url(#linear-gradient);}.cls-7{fill:url(#linear-gradient-2);}.cls-8{fill:#e9e9e3;}.cls-13,.cls-9{opacity:0.2;}.cls-9{fill:url(#linear-gradient-3);}.cls-10{fill:#c4c3c4;}.cls-11{fill:#efeff0;}.cls-12,.cls-14{mix-blend-mode:screen;}.cls-12{fill:url(#linear-gradient-4);}.cls-13{fill:#545e61;}.cls-14{fill:url(#linear-gradient-5);}</style><linearGradient id="linear-gradient" x1="127.44" y1="257.61" x2="127.44" y2="25.79" gradientUnits="userSpaceOnUse"><stop offset="0" stop-color="#fff"/><stop offset="1" stop-color="#a6a6a6"/></linearGradient><linearGradient id="linear-gradient-2" x1="127.86" y1="305.67" x2="127.86" y2="292.91" gradientUnits="userSpaceOnUse"><stop offset="0" stop-color="#fff"/><stop offset="1"/></linearGradient><linearGradient id="linear-gradient-3" x1="128.88" y1="-6.27" x2="128.88" y2="402.63" gradientUnits="userSpaceOnUse"><stop offset="0" stop-color="#949292"/><stop offset="0.03" stop-color="#a3a1a1"/><stop offset="0.11" stop-color="#c4c3c3"/><stop offset="0.2" stop-color="#dedddd"/><stop offset="0.28" stop-color="#f0f0f0"/><stop offset="0.37" stop-color="#fbfbfb"/><stop offset="0.46" stop-color="#fff"/><stop offset="0.55" stop-color="#fafafa"/><stop offset="0.66" stop-color="#eaeaea"/><stop offset="0.77" stop-color="#d0d0d1"/><stop offset="0.9" stop-color="#adadae"/><stop offset="1" stop-color="#8b8b8d"/></linearGradient><linearGradient id="linear-gradient-4" x1="128.02" y1="323.53" x2="128.02" y2="69.52" xlink:href="#linear-gradient-2"/><linearGradient id="linear-gradient-5" x1="127.43" y1="323.53" x2="127.43" y2="69.52" xlink:href="#linear-gradient-2"/></defs><g class="cls-1"><g id="Layer_1" data-name="Layer 1"><rect class="cls-2" x="32.61" y="49.49" width="189.64" height="264.86"/><polygon class="cls-3" points="222.24 314.36 222.15 49.49 32.61 49.49 32.61 314.36 222.24 314.36"/><polygon class="cls-4" points="222.24 314.36 222.26 52.1 32.61 52.1 32.61 314.36 222.24 314.36"/><polygon class="cls-5" points="222.24 314.36 222.26 52.1 32.61 52.1 32.61 314.36 222.24 314.36"/><polygon class="cls-4" points="221.82 312.04 221.82 52.1 33.36 52.1 33.43 312.04 221.82 312.04"/><polygon class="cls-6" points="222.24 314.36 222.26 52.1 32.61 52.1 32.61 314.36 222.24 314.36"/><path class="cls-7" d="M175.84,298.56A7.64,7.64,0,0,1,168,306H87.73a7.63,7.63,0,0,1-7.85-7.4h0a7.63,7.63,0,0,1,7.85-7.39H168a7.63,7.63,0,0,1,7.85,7.39Z"/><path class="cls-5" d="M172.65,295.66a7.39,7.39,0,0,1-7.39,7.4H89.59a7.39,7.39,0,0,1-7.39-7.4h0a7.39,7.39,0,0,1,7.39-7.39h75.67a7.39,7.39,0,0,1,7.39,7.39Z"/><path class="cls-2" d="M169.77,294.14c0,2.64-3.11,4.79-6.94,4.79h-71c-3.83,0-6.94-2.15-6.94-4.79h0c0-2.64,3.11-4.78,6.94-4.78h71c3.83,0,6.94,2.14,6.94,4.78Z"/><path class="cls-8" d="M169.77,294.14c0,2.64-3.11,4.79-6.94,4.79h-71c-3.83,0-6.94-2.15-6.94-4.79h0c0-2.64,3.11-4.78,6.94-4.78h71c3.83,0,6.94,2.14,6.94,4.78Z"/><path class="cls-2" d="M167.9,292.4c0,1-3,1.74-6.6,1.74H93.77c-3.64,0-6.6-.78-6.6-1.74h0c0-1,3-1.74,6.6-1.74H161.3c3.64,0,6.6.78,6.6,1.74Z"/><path class="cls-9" d="M158,3.82H99.81C46.89,3.82,4,45.75,4,97.47V269.78c0,51.72,42.91,93.65,95.83,93.65H158c52.93,0,95.83-41.93,95.83-93.65V97.47C253.78,45.75,210.88,3.82,158,3.82Zm82.23,259a86.52,86.52,0,0,1-86.51,86.52H101.18a86.52,86.52,0,0,1-86.51-86.52V103.6a86.53,86.53,0,0,1,66.7-84.21,83.37,83.37,0,0,1,20.36-2.52h51.39a83.29,83.29,0,0,1,20.35,2.52,86.53,86.53,0,0,1,66.71,84.21Z"/><path class="cls-10" d="M173.47,19.39c36.95,9.27,64.35,43.2,64.35,83.65V261.6c0,47.59-37.92,86.18-84.7,86.18H101.73C55,347.78,17,309.19,17,261.6V103c0-40.45,27.4-74.37,64.34-83.65a86.53,86.53,0,0,0-66.7,84.21V262.78a86.52,86.52,0,0,0,86.51,86.52h52.49a86.52,86.52,0,0,0,86.51-86.52V103.6A86.53,86.53,0,0,0,173.47,19.39Z"/><path class="cls-11" d="M153.67,17.09a86.67,86.67,0,0,1,19.8,2.3,83.29,83.29,0,0,0-20.35-2.52H101.73a83.37,83.37,0,0,0-20.36,2.52,86.75,86.75,0,0,1,19.81-2.3Z"/><path class="cls-11" d="M17,103V261.6c0,47.59,37.92,86.18,84.7,86.18h51.39c46.78,0,84.7-38.59,84.7-86.18V103c0-40.45-27.4-74.38-64.35-83.65a86.67,86.67,0,0,0-19.8-2.3H101.18a86.75,86.75,0,0,0-19.81,2.3C44.43,28.67,17,62.59,17,103Zm86.59-69.25h47.61a77.84,77.84,0,0,1,62.08,31h5.29c13.47,9.9,15.21,37.47,15.21,37.47v156.8c-.43,25.42-10.87,42.65-29.56,62.46s-47.4,19.82-47.4,19.82H96c-14.78,0-44.79-13.78-59.14-34.46s-14.35-50-14.35-50-.58-133.68,0-154.36a74,74,0,0,1,10-35.18l7.1.1A78,78,0,0,1,103.62,33.79Z"/><path class="cls-11" d="M229.73,260.57c0,44.1-35.15,79.85-78.5,79.85H103.62c-43.35,0-78.49-35.75-78.49-79.85V113.64A80.41,80.41,0,0,1,39.58,67.49l-7.1-.1a74,74,0,0,0-10,35.18c-.58,20.68,0,154.36,0,154.36s0,29.29,14.35,50S81.19,341.36,96,341.36h60.88s28.7,0,47.4-19.82,29.13-37,29.56-62.46V102.28s-1.74-27.57-15.21-37.47h-5.29a80.34,80.34,0,0,1,16.42,48.83Z"/><path class="cls-12" d="M229.73,260.57c0,44.1-35.15,79.85-78.5,79.85H103.62c-43.35,0-78.49-35.75-78.49-79.85V113.64A80.41,80.41,0,0,1,39.58,67.49l-7.1-.1a74,74,0,0,0-10,35.18c-.58,20.68,0,154.36,0,154.36s0,29.29,14.35,50S81.19,341.36,96,341.36h60.88s28.7,0,47.4-19.82,29.13-37,29.56-62.46V102.28s-1.74-27.57-15.21-37.47h-5.29a80.34,80.34,0,0,1,16.42,48.83Z"/><path class="cls-11" d="M62.24,67.81a70.16,70.16,0,0,1,43.63-15.19H149a70,70,0,0,1,39.55,12.19h24.77a77.84,77.84,0,0,0-62.08-31H103.62a78,78,0,0,0-64,33.7Z"/><path class="cls-13" d="M62.24,67.81a70.16,70.16,0,0,1,43.63-15.19H149a70,70,0,0,1,39.55,12.19h24.77a77.84,77.84,0,0,0-62.08-31H103.62a78,78,0,0,0-64,33.7Z"/><path class="cls-11" d="M220.06,124.68V257.26c0,39.8-31.82,72.06-71.07,72.06H105.87c-39.26,0-71.08-32.26-71.08-72.06V124.68A72.28,72.28,0,0,1,62.24,67.81l-22.66-.32a80.41,80.41,0,0,0-14.45,46.15V260.57c0,44.1,35.14,79.85,78.49,79.85h47.61c43.35,0,78.5-35.75,78.5-79.85V113.64a80.34,80.34,0,0,0-16.42-48.83H188.54A72.23,72.23,0,0,1,220.06,124.68Z"/><path class="cls-14" d="M220.06,124.68V257.26c0,39.8-31.82,72.06-71.07,72.06H105.87c-39.26,0-71.08-32.26-71.08-72.06V124.68A72.28,72.28,0,0,1,62.24,67.81l-22.66-.32a80.41,80.41,0,0,0-14.45,46.15V260.57c0,44.1,35.14,79.85,78.49,79.85h47.61c43.35,0,78.5-35.75,78.5-79.85V113.64a80.34,80.34,0,0,0-16.42-48.83H188.54A72.23,72.23,0,0,1,220.06,124.68Z"/><path class="cls-13" d="M220.06,124.68V257.26c0,39.8-31.82,72.06-71.07,72.06H105.87c-39.26,0-71.08-32.26-71.08-72.06V124.68A72.28,72.28,0,0,1,62.24,67.81l-22.66-.32a80.41,80.41,0,0,0-14.45,46.15V260.57c0,44.1,35.14,79.85,78.49,79.85h47.61c43.35,0,78.5-35.75,78.5-79.85V113.64a80.34,80.34,0,0,0-16.42-48.83H188.54A72.23,72.23,0,0,1,220.06,124.68Z"/></g></g></svg>